<svg width="140" height="128" viewBox="0 0 140 128" fill="none" xmlns="http://www.w3.org/2000/svg">
<path d="M85.5507 105.127H7.08704V102.216H30.2465V42.2291H7.08704V39.1918H84.6648C91.1613 39.1918 96.1812 40.6682 99.7248 43.6212C103.353 46.5741 105.167 50.5395 105.167 55.5173C105.167 59.4826 103.985 62.8996 101.623 65.7682C99.3451 68.5524 95.8438 70.4085 91.1191 71.3366C96.6875 72.0115 101.117 73.6989 104.407 76.3987C107.698 79.0142 109.343 82.853 109.343 87.9152C109.343 93.7367 107.234 98.0817 103.015 100.95C98.7967 103.734 92.9752 105.127 85.5507 105.127ZM84.4117 42.2291H33.4103V69.8179H83.9055C89.2208 69.8179 93.5658 68.6367 96.9406 66.2744C100.315 63.8277 102.003 60.242 102.003 55.5173C102.003 50.7926 100.315 47.4178 96.9406 45.3929C93.5658 43.2837 89.3895 42.2291 84.4117 42.2291ZM83.2727 72.9818L33.4103 72.8552V102.216H84.6648C91.1613 102.216 96.35 101.119 100.231 98.9254C104.196 96.7318 106.179 93.0617 106.179 87.9152C106.179 84.2873 105.124 81.3765 103.015 79.1829C100.99 76.9893 98.2483 75.4285 94.7891 74.5004C91.33 73.488 87.4912 72.9818 83.2727 72.9818Z" fill="white" fill-opacity="0.5"/>
<path d="M114.488 70.0046V67.7706L125.397 55.5078C126.821 53.8988 127.968 52.5236 128.838 51.3821C129.707 50.2407 130.338 49.1862 130.729 48.2186C131.131 47.2511 131.333 46.2455 131.333 45.2018C131.333 43.9299 131.034 42.821 130.436 41.8752C129.849 40.9185 129.039 40.1739 128.006 39.6412C126.973 39.1085 125.81 38.8421 124.516 38.8421C123.146 38.8421 121.945 39.1357 120.912 39.7227C119.891 40.3098 119.097 41.1142 118.532 42.1361C117.966 43.158 117.684 44.3321 117.684 45.6584H114.765C114.765 43.8103 115.189 42.1742 116.037 40.75C116.895 39.315 118.064 38.1899 119.543 37.3745C121.032 36.5592 122.717 36.1515 124.598 36.1515C126.457 36.1515 128.109 36.5537 129.555 37.3582C131.001 38.1518 132.137 39.2335 132.963 40.6033C133.789 41.9731 134.203 43.5059 134.203 45.2018C134.203 46.4303 133.985 47.6207 133.55 48.773C133.126 49.9254 132.392 51.2082 131.349 52.6215C130.305 54.0347 128.859 55.7633 127.011 57.8071L118.727 67.0531V67.2651H135.246V70.0046H114.488Z" fill="white" fill-opacity="0.5"/>
</svg>
