<svg width="125" height="229" viewBox="0 0 125 229" fill="none" xmlns="http://www.w3.org/2000/svg">
<path d="M88.8683 152.025C89.4812 152.331 89.8387 152.842 89.9408 153.557C90.043 154.272 90.043 154.834 89.9408 155.243C88.1022 157.592 86.8254 159.226 86.1103 160.146C85.3953 161.065 84.8846 161.78 84.5781 162.291C84.2717 162.699 83.9142 163.057 83.5056 163.363C83.1991 163.67 82.433 164.334 81.2073 165.355C76.6106 168.113 71.8608 170.565 66.9577 172.71C62.1568 174.855 57.1005 176.336 51.7888 177.153C50.9717 178.277 49.3884 179.043 47.039 179.452C44.7917 179.962 42.6977 180.422 40.7569 180.831C40.3483 180.626 40.093 180.32 39.9908 179.911C39.9908 179.605 39.7865 179.349 39.3779 179.145C39.2758 180.167 38.8161 180.677 37.9989 180.677C37.1818 180.779 36.1603 180.575 34.9345 180.064C33.8109 179.656 32.5851 179.043 31.2572 178.226C30.0315 177.511 28.9589 176.847 28.0396 176.234C27.5288 177.051 26.967 177.868 26.3542 178.685C25.8434 179.503 25.1795 180.064 24.3623 180.371C23.2387 180.167 22.3704 180.013 21.7575 179.911C21.2468 179.809 20.7361 180.013 20.2253 180.524C19.6124 180.218 19.1017 179.86 18.6931 179.452C18.3867 179.043 18.0291 178.634 17.6206 178.226C17.3141 177.919 16.9055 177.613 16.3948 177.306C15.9862 177 15.3733 176.745 14.5561 176.54C14.7604 176.132 14.6583 175.519 14.2497 174.702C13.8411 173.782 13.2282 173.221 12.411 173.016C12.8196 172.301 12.6153 171.433 11.7982 170.411C11.0831 169.288 10.5213 168.062 10.1127 166.734C10.317 165.611 10.4702 164.385 10.5724 163.057C10.6745 161.729 11.2874 160.963 12.411 160.759C12.3089 160.044 12.1557 159.431 11.9514 158.92C11.7471 158.409 11.5428 157.898 11.3385 157.388C12.0535 156.775 12.5643 156.06 12.8707 155.243C13.1772 154.323 13.4325 153.404 13.6368 152.485C13.8411 151.565 14.0965 150.646 14.4029 149.727C14.7094 148.807 15.2712 148.041 16.0884 147.428C17.0077 144.364 17.7227 142.117 18.2334 140.687C18.7442 139.154 19.1017 137.673 19.306 136.243C19.6124 134.813 19.9189 133.281 20.2253 131.647C20.6339 130.012 21.2979 127.969 22.2172 125.518C22.115 123.986 22.2683 122.658 22.6769 121.534C23.0854 120.308 23.494 119.134 23.9026 118.01C24.4134 116.784 24.8219 115.558 25.1284 114.333C25.4348 113.005 25.3838 111.473 24.9752 109.736C23.5451 109.838 22.5236 110.349 21.9107 111.268C21.2979 112.085 20.8893 113.209 20.685 114.639C19.8678 115.456 18.8463 115.865 17.6206 115.865C16.4969 115.763 15.4755 115.865 14.5561 116.171C10.981 114.741 8.01871 112.698 5.66933 110.042C3.31994 107.387 1.43021 104.271 0.000150502 100.696C0.919476 98.3466 2.29846 96.4058 4.13712 94.8736C5.97577 93.2392 8.06979 91.9113 10.4192 90.8898C12.7686 89.7662 15.2712 88.898 17.927 88.2851C20.5828 87.57 23.1365 86.9061 25.588 86.2932C29.5718 85.5782 33.5555 84.761 37.5393 83.8417C41.523 82.9223 45.8132 82.6159 50.4098 82.9223C51.0227 82.6159 51.7378 82.4627 52.5549 82.4627C53.4743 82.3605 54.3936 82.3095 55.3129 82.3095C56.2322 82.3095 57.1005 82.3095 57.9177 82.3095C58.837 82.2073 59.6031 82.003 60.216 81.6966C60.7267 82.3095 61.4418 82.718 62.3611 82.9223C63.3826 83.0245 64.4551 83.4841 65.5787 84.3013C66.8045 83.382 67.826 83.1777 68.6431 83.6884C69.5625 84.1992 70.3796 84.761 71.0947 85.3739C71.8097 85.9868 72.4737 86.5486 73.0865 87.0593C73.8016 87.57 74.5166 87.8254 75.2316 87.8254C75.9467 88.7447 76.8149 89.613 77.8364 90.4302C78.96 91.2473 79.9815 92.1156 80.9008 93.0349C81.9223 93.8521 82.7395 94.7714 83.3523 95.7929C84.0674 96.8144 84.4249 97.9891 84.4249 99.317C84.3227 99.8277 84.476 100.134 84.8846 100.236C85.2931 100.338 85.5996 100.543 85.8039 100.849C85.906 104.016 85.3953 106.774 84.2717 109.123C83.2502 111.37 81.9223 113.464 80.2879 115.405C78.7557 117.346 77.0192 119.185 75.0784 120.921C73.2398 122.658 71.5543 124.496 70.0221 126.437C71.0436 127.765 72.2183 128.94 73.5462 129.961C74.8741 130.983 76.202 132.004 77.53 133.026C78.96 134.047 80.2879 135.12 81.5137 136.243C82.7395 137.367 83.7609 138.695 84.5781 140.227C84.7824 140.431 85.0378 140.636 85.3442 140.84C85.6507 140.942 85.9571 141.095 86.2635 141.3C86.57 142.321 86.9786 143.394 87.4893 144.517C88.0001 145.539 88.4086 146.56 88.7151 147.582C89.1237 148.501 89.379 149.369 89.4812 150.186C89.5833 150.901 89.379 151.514 88.8683 152.025ZM61.9014 100.849C56.6919 100.645 51.4824 101.105 46.2729 102.228C41.1655 103.352 36.8753 104.935 33.4023 106.978C35.1388 108.408 36.8753 109.685 38.6118 110.809C40.4505 111.932 41.8805 113.464 42.902 115.405C46.8858 113.771 50.4098 111.728 53.4743 109.276C56.5387 106.723 59.3477 103.914 61.9014 100.849ZM63.8933 149.727C64.1997 148.705 64.7615 147.888 65.5787 147.275C66.3959 146.662 67.2131 146.1 68.0303 145.59C68.8474 144.977 69.5625 144.364 70.1753 143.751C70.7882 143.036 71.0436 142.066 70.9415 140.84C67.6727 139.103 64.6594 138.082 61.9014 137.775C59.2456 137.367 56.6919 137.367 54.2404 137.775C51.891 138.082 49.5927 138.593 47.3454 139.308C45.2003 140.023 43.0042 140.533 40.7569 140.84C39.6333 143.802 38.4586 147.02 37.2328 150.493C36.0071 153.966 34.8324 157.337 33.7088 160.605C36.7732 160.197 39.5822 159.584 42.1359 158.767C44.6896 157.847 47.1411 156.877 49.4905 155.856C51.9421 154.834 54.2914 153.813 56.5387 152.791C58.8881 151.667 61.3396 150.646 63.8933 149.727Z" fill="white" fill-opacity="0.7"/>
<path d="M103.298 98.6733C103.298 95.8267 103.754 93.3977 104.665 91.3862C105.576 89.3367 107.208 87.0784 109.561 84.6114C111.876 82.1444 113.47 80.038 114.343 78.2921C115.254 76.5463 115.709 74.7245 115.709 72.8268C115.709 71.1189 115.425 69.9423 114.855 69.2971C114.324 68.6139 113.527 68.2723 112.464 68.2723C110.301 68.2723 109.219 69.5817 109.219 72.2006V76.4703H103.298V72.5991C103.298 69.373 104.095 66.906 105.69 65.1981C107.284 63.4522 109.599 62.5793 112.635 62.5793C115.671 62.5793 117.987 63.4522 119.581 65.1981C121.175 66.906 121.972 69.373 121.972 72.5991C121.972 75.0281 121.383 77.4002 120.207 79.7154C119.068 82.0306 117.076 84.6873 114.229 87.6857C112.369 89.6593 111.117 91.2723 110.472 92.5248C109.826 93.7393 109.504 95.0487 109.504 96.453V97.3069H121.402V103H103.298V98.6733Z" fill="white" fill-opacity="0.7"/>
</svg>
