<svg width="142" height="128" viewBox="0 0 142 128" fill="none" xmlns="http://www.w3.org/2000/svg">
<path d="M85.5507 105.127H7.08704V102.216H30.2465V42.2291H7.08704V39.1918H84.6648C91.1613 39.1918 96.1812 40.6682 99.7248 43.6212C103.353 46.5741 105.167 50.5395 105.167 55.5173C105.167 59.4826 103.985 62.8996 101.623 65.7682C99.3451 68.5524 95.8438 70.4085 91.1191 71.3366C96.6875 72.0115 101.117 73.6989 104.407 76.3987C107.698 79.0142 109.343 82.853 109.343 87.9152C109.343 93.7367 107.234 98.0817 103.015 100.95C98.7967 103.734 92.9752 105.127 85.5507 105.127ZM84.4117 42.2291H33.4103V69.8179H83.9055C89.2208 69.8179 93.5658 68.6367 96.9406 66.2744C100.315 63.8277 102.003 60.242 102.003 55.5173C102.003 50.7926 100.315 47.4178 96.9406 45.3929C93.5658 43.2837 89.3895 42.2291 84.4117 42.2291ZM83.2727 72.9818L33.4103 72.8552V102.216H84.6648C91.1613 102.216 96.35 101.119 100.231 98.9254C104.196 96.7318 106.179 93.0617 106.179 87.9152C106.179 84.2873 105.124 81.3765 103.015 79.1829C100.99 76.9893 98.2483 75.4285 94.7891 74.5004C91.33 73.488 87.4912 72.9818 83.2727 72.9818Z" fill="white" fill-opacity="0.5"/>
<path d="M117.435 64V30.6035H120.354V43.7305H120.615C120.941 42.9804 121.409 42.2085 122.018 41.4149C122.637 40.6213 123.447 39.9582 124.447 39.4255C125.458 38.8819 126.73 38.6101 128.263 38.6101C130.318 38.6101 132.123 39.1537 133.677 40.2408C135.232 41.3171 136.444 42.8282 137.314 44.7742C138.183 46.7092 138.618 48.965 138.618 51.5415C138.618 54.1289 138.183 56.3955 137.314 58.3415C136.455 60.2875 135.248 61.804 133.693 62.8911C132.15 63.9783 130.356 64.5218 128.312 64.5218C126.79 64.5218 125.518 64.25 124.496 63.7065C123.485 63.1629 122.67 62.4943 122.05 61.7007C121.431 60.8963 120.952 60.1135 120.615 59.3525H120.257V64H117.435ZM120.305 51.4926C120.305 53.5147 120.604 55.3084 121.202 56.8739C121.811 58.4285 122.681 59.6515 123.811 60.5429C124.953 61.4235 126.334 61.8638 127.953 61.8638C129.617 61.8638 131.025 61.4072 132.177 60.494C133.329 59.57 134.204 58.3252 134.802 56.7597C135.4 55.1943 135.699 53.4386 135.699 51.4926C135.699 49.5684 135.4 47.8344 134.802 46.2907C134.215 44.747 133.346 43.524 132.193 42.6216C131.041 41.7085 129.628 41.2519 127.953 41.2519C126.323 41.2519 124.937 41.6921 123.795 42.5727C122.665 43.4424 121.8 44.6491 121.202 46.1929C120.604 47.7257 120.305 49.4923 120.305 51.4926Z" fill="white" fill-opacity="0.5"/>
</svg>
