<svg width="102" height="215" viewBox="0 0 102 215" fill="none" xmlns="http://www.w3.org/2000/svg">
<path d="M11.1454 123V30.9605H43.3233C49.7349 30.9605 55.0229 32.0691 59.1875 34.2862C63.352 36.4733 66.453 39.4244 68.4903 43.1396C70.5276 46.8248 71.5463 50.9144 71.5463 55.4085C71.5463 59.3633 70.8422 62.6291 69.4341 65.2057C68.0559 67.7823 66.2283 69.8196 63.9513 71.3177C61.7042 72.8157 59.2624 73.9243 56.6258 74.6433V75.5422C59.4422 75.7219 62.2734 76.7106 65.1197 78.5083C67.966 80.3059 70.3479 82.8825 72.2654 86.2381C74.1828 89.5937 75.1416 93.6984 75.1416 98.552C75.1416 103.166 74.093 107.316 71.9957 111.001C69.8985 114.686 66.5878 117.607 62.0637 119.764C57.5396 121.921 51.6524 123 44.4019 123H11.1454ZM22.2908 113.113H44.4019C51.6823 113.113 56.8505 111.705 59.9065 108.888C62.9925 106.042 64.5355 102.597 64.5355 98.552C64.5355 95.4361 63.7415 92.5599 62.1536 89.9233C60.5657 87.2568 58.3036 85.1296 55.3675 83.5417C52.4313 81.9238 48.9559 81.1149 44.9411 81.1149H22.2908V113.113ZM22.2908 71.4076H42.9637C46.3193 71.4076 49.3454 70.7484 52.0418 69.4302C54.7683 68.1119 56.9254 66.2543 58.5134 63.8575C60.1313 61.4606 60.9402 58.6443 60.9402 55.4085C60.9402 51.3638 59.532 47.9333 56.7157 45.117C53.8994 42.2707 49.4353 40.8476 43.3233 40.8476H22.2908V71.4076Z" fill="white"/>
<path d="M30.1454 185V92.9605H62.3233C68.7349 92.9605 74.0229 94.0691 78.1875 96.2862C82.352 98.4733 85.453 101.424 87.4903 105.14C89.5276 108.825 90.5463 112.914 90.5463 117.409C90.5463 121.363 89.8422 124.629 88.4341 127.206C87.0559 129.782 85.2283 131.82 82.9513 133.318C80.7042 134.816 78.2624 135.924 75.6258 136.643V137.542C78.4422 137.722 81.2734 138.711 84.1197 140.508C86.966 142.306 89.3479 144.883 91.2654 148.238C93.1828 151.594 94.1416 155.698 94.1416 160.552C94.1416 165.166 93.093 169.316 90.9957 173.001C88.8985 176.686 85.5878 179.607 81.0637 181.764C76.5396 183.921 70.6524 185 63.4019 185H30.1454ZM41.2908 175.113H63.4019C70.6823 175.113 75.8505 173.705 78.9065 170.888C81.9925 168.042 83.5355 164.597 83.5355 160.552C83.5355 157.436 82.7415 154.56 81.1536 151.923C79.5657 149.257 77.3036 147.13 74.3675 145.542C71.4313 143.924 67.9559 143.115 63.9411 143.115H41.2908V175.113ZM41.2908 133.408H61.9637C65.3193 133.408 68.3454 132.748 71.0418 131.43C73.7683 130.112 75.9254 128.254 77.5134 125.857C79.1313 123.461 79.9402 120.644 79.9402 117.409C79.9402 113.364 78.532 109.933 75.7157 107.117C72.8994 104.271 68.4353 102.848 62.3233 102.848H41.2908V133.408Z" fill="white"/>
</svg>
