<svg width="106" height="203" viewBox="0 0 106 203" fill="none" xmlns="http://www.w3.org/2000/svg">
<path d="M12.7173 181V46.1656H32.4062C39.4033 46.1656 44.6894 47.187 48.2646 49.23C51.8398 51.2729 54.2658 54.5161 55.5426 58.9595C56.8194 63.3518 57.4834 69.1487 57.5345 76.3501V78.1121C57.5345 86.0285 57.0237 92.4638 56.0023 97.418C55.0319 102.321 52.6569 105.998 48.8775 108.45C51.7887 109.829 53.9848 112.178 55.466 115.498C56.9982 118.818 58.0197 122.725 58.5304 127.219C59.0922 131.663 59.3731 136.362 59.3731 141.316V143.691C59.271 152.22 58.5559 159.243 57.228 164.759C55.9001 170.275 53.5507 174.36 50.1799 177.016C46.8601 179.672 42.0847 181 35.8537 181H12.7173ZM24.1323 171.194H36.2368C39.4033 171.194 41.8293 170.351 43.5148 168.666C45.2002 166.929 46.3493 163.89 46.9622 159.549C47.6262 155.157 47.9582 149.028 47.9582 141.163V139.937C47.9071 130.386 47.141 123.568 45.6598 119.482C44.2298 115.345 41.1654 113.276 36.4666 113.276H24.1323V171.194ZM24.1323 104.083H34.3981C36.8496 104.083 38.8415 103.879 40.3737 103.47C41.9059 103.011 43.0806 101.964 43.8978 100.329C44.715 98.6948 45.2768 96.1667 45.5832 92.7447C45.9407 89.3228 46.1195 84.6496 46.1195 78.725V77.6525C46.0684 71.3193 45.5832 66.6461 44.6639 63.6328C43.7957 60.5683 42.3911 58.5765 40.4503 57.6571C38.5095 56.6867 35.9303 56.2015 32.7127 56.2015H24.1323V104.083Z" fill="white"/>
<path d="M75.831 55V13.5959H79.4498V29.8705H79.7733C80.1776 28.9405 80.7572 27.9836 81.5119 26.9997C82.2802 26.0158 83.2843 25.1937 84.5242 24.5332C85.7777 23.8593 87.3546 23.5224 89.255 23.5224C91.8023 23.5224 94.0396 24.1963 95.967 25.5441C97.8943 26.8784 99.3971 28.7518 100.475 31.1644C101.554 33.5634 102.093 36.3601 102.093 39.5543C102.093 42.7621 101.554 45.5722 100.475 47.9848C99.4106 50.3973 97.9145 52.2775 95.9872 53.6253C94.0733 54.973 91.8495 55.6469 89.3156 55.6469C87.4287 55.6469 85.8518 55.31 84.5849 54.6361C83.3315 53.9622 82.3206 53.1333 81.5524 52.1494C80.7841 51.1521 80.1911 50.1817 79.7733 49.2382H79.3285V55H75.831ZM79.3892 39.4937C79.3892 42.0006 79.7598 44.2244 80.5011 46.1652C81.2559 48.0926 82.3341 49.6088 83.7358 50.714C85.151 51.8057 86.8627 52.3516 88.8709 52.3516C90.933 52.3516 92.6784 51.7855 94.107 50.6534C95.5357 49.5078 96.6206 47.9645 97.3619 46.0237C98.1032 44.0829 98.4739 41.9062 98.4739 39.4937C98.4739 37.1081 98.1032 34.9584 97.3619 33.0445C96.6341 31.1307 95.5559 29.6144 94.1272 28.4957C92.6986 27.3636 90.9465 26.7975 88.8709 26.7975C86.8492 26.7975 85.1307 27.3434 83.7156 28.4351C82.3139 29.5133 81.2424 31.0094 80.5011 32.9232C79.7598 34.8236 79.3892 37.0138 79.3892 39.4937Z" fill="white"/>
</svg>
