<svg width="432" height="211" viewBox="0 0 432 211" fill="none" xmlns="http://www.w3.org/2000/svg">
<path d="M18.7867 97.8973C14.1534 97.8973 10.4612 96.7751 7.71016 94.5309C4.95911 92.2504 2.98633 88.9202 1.7918 84.5402C0.597266 80.1603 0 74.8392 0 68.577V28.7773C0 24.5784 0.271484 20.7414 0.814453 17.2664C1.35742 13.7552 2.31667 10.7327 3.69219 8.19883C5.10391 5.62878 7.05859 3.65599 9.55625 2.28047C12.0539 0.86875 15.2574 0.162891 19.1668 0.162891C22.8952 0.162891 25.9358 0.832552 28.2887 2.17188C30.6415 3.475 32.4695 5.35729 33.7727 7.81875C35.0758 10.244 35.9626 13.1398 36.4332 16.5063C36.94 19.8365 37.1934 23.5286 37.1934 27.5828V38.1707H26.1711V27.5285C26.1711 21.5921 25.7367 17.1578 24.868 14.2258C24.0354 11.2576 22.135 9.77344 19.1668 9.77344C16.0176 9.77344 13.9 11.2937 12.8141 14.3344C11.7643 17.3388 11.2395 21.7188 11.2395 27.4742V68.8484C11.2395 73.4818 11.4385 77.2464 11.8367 80.1422C12.2349 83.0018 12.977 85.0832 14.0629 86.3863C15.185 87.6894 16.7777 88.341 18.841 88.341C21.8454 88.341 23.8182 86.8207 24.7594 83.7801C25.7005 80.7395 26.1711 75.7441 26.1711 68.7941V58.2062H37.302V68.6855C37.302 75.0564 36.7409 80.4137 35.6187 84.7574C34.5328 89.1012 32.6505 92.3771 29.9719 94.5852C27.2932 96.7932 23.5648 97.8973 18.7867 97.8973Z" fill="white"/>
<path d="M69.8345 96.757V1.19453H81.0739V42.0801H96.3856V1.19453H107.625V96.757H96.3856V51.2562H81.0739V96.757H69.8345Z" fill="white"/>
<path d="M142.167 96.757V1.19453H153.406V96.757H142.167Z" fill="white"/>
<path d="M205.703 97.8973C201.069 97.8973 197.377 96.7751 194.626 94.5309C191.875 92.2504 189.902 88.9202 188.708 84.5402C187.513 80.1603 186.916 74.8392 186.916 68.577V28.7773C186.916 24.5784 187.187 20.7414 187.73 17.2664C188.273 13.7552 189.233 10.7327 190.608 8.19883C192.02 5.62878 193.974 3.65599 196.472 2.28047C198.97 0.86875 202.173 0.162891 206.083 0.162891C209.811 0.162891 212.852 0.832552 215.205 2.17188C217.557 3.475 219.385 5.35729 220.689 7.81875C221.992 10.244 222.879 13.1398 223.349 16.5063C223.856 19.8365 224.109 23.5286 224.109 27.5828V38.1707H213.087V27.5285C213.087 21.5921 212.653 17.1578 211.784 14.2258C210.951 11.2576 209.051 9.77344 206.083 9.77344C202.933 9.77344 200.816 11.2937 199.73 14.3344C198.68 17.3388 198.155 21.7188 198.155 27.4742V68.8484C198.155 73.4818 198.354 77.2464 198.753 80.1422C199.151 83.0018 199.893 85.0832 200.979 86.3863C202.101 87.6894 203.694 88.341 205.757 88.341C208.761 88.341 210.734 86.8207 211.675 83.7801C212.616 80.7395 213.087 75.7441 213.087 68.7941V58.2062H224.218V68.6855C224.218 75.0564 223.657 80.4137 222.535 84.7574C221.449 89.1012 219.566 92.3771 216.888 94.5852C214.209 96.7932 210.481 97.8973 205.703 97.8973Z" fill="white"/>
<path d="M251.646 96.757L266.144 1.19453H279.664L295.464 96.757H284.876L282.161 78.5133H264.841L262.343 96.757H251.646ZM266.089 69.3914H280.75L273.202 18.8953H273.039L266.089 69.3914Z" fill="white"/>
<path d="M341.082 97.6801C335.544 97.6801 331.291 95.3996 328.322 90.8387C325.354 86.2777 323.87 78.7667 323.87 68.3055V28.2344C323.87 24.0354 324.16 20.2346 324.739 16.832C325.354 13.3932 326.386 10.425 327.834 7.92734C329.282 5.42969 331.254 3.5112 333.752 2.17188C336.286 0.832552 339.471 0.162891 343.308 0.162891C347.29 0.162891 350.457 0.850651 352.81 2.22617C355.199 3.56549 357.009 5.48398 358.24 7.98164C359.471 10.4793 360.285 13.4656 360.683 16.9406C361.081 20.4156 361.281 24.2526 361.281 28.4516V35.8359H350.421V23.402C350.421 18.7686 349.951 15.3479 349.009 13.1398C348.105 10.8956 346.204 9.77344 343.308 9.77344C340.231 9.77344 338.096 11.0947 336.901 13.7371C335.707 16.3796 335.109 21.0491 335.109 27.7457V67.9254C335.109 75.2374 335.598 80.468 336.575 83.6172C337.589 86.7664 339.725 88.341 342.982 88.341C346.096 88.341 348.195 86.7664 349.281 83.6172C350.403 80.4318 350.964 75.1288 350.964 67.7082V55.2742H343.2V46.5867H361.281V96.757H355.362L353.842 89.3727C352.828 92.0513 351.218 94.1146 349.009 95.5625C346.838 96.9742 344.195 97.6801 341.082 97.6801Z" fill="white"/>
<path d="M412.817 97.843C408.039 97.843 404.256 96.7932 401.469 94.6937C398.718 92.5943 396.745 89.427 395.551 85.1918C394.392 80.9566 393.813 75.6536 393.813 69.2828V27.1484C393.813 21.6464 394.356 16.8682 395.442 12.8141C396.528 8.7599 398.464 5.61068 401.252 3.36641C404.039 1.12214 407.985 0 413.088 0C416.925 0 420.057 0.651563 422.482 1.95469C424.907 3.22161 426.771 5.04961 428.074 7.43867C429.414 9.79154 430.337 12.6331 430.844 15.9633C431.35 19.2935 431.604 23.0219 431.604 27.1484V69.2828C431.604 75.6536 431.025 80.9566 429.866 85.1918C428.744 89.427 426.807 92.5943 424.056 94.6937C421.342 96.7932 417.595 97.843 412.817 97.843ZM412.817 88.1781C414.88 88.1781 416.455 87.599 417.541 86.4406C418.627 85.2461 419.369 83.2733 419.767 80.5223C420.165 77.7712 420.364 74.0609 420.364 69.3914V26.4969C420.364 20.7776 419.912 16.5424 419.007 13.7914C418.102 11.0404 416.129 9.66484 413.088 9.66484C409.939 9.66484 407.804 11.0404 406.681 13.7914C405.595 16.5062 405.052 20.7233 405.052 26.4426V69.3914C405.052 74.0971 405.252 77.8255 405.65 80.5766C406.048 83.2914 406.808 85.2461 407.93 86.4406C409.052 87.599 410.681 88.1781 412.817 88.1781Z" fill="white"/>
<path d="M15.102 148.28C11.7413 146.919 8.94077 144.999 6.70031 142.519C4.53987 140.038 2.77951 137.117 1.41923 133.757C2.21939 131.596 3.49965 129.796 5.26002 128.356C7.02038 126.835 8.98078 125.555 11.1412 124.515C13.3817 123.475 15.7422 122.634 18.2227 121.994C20.7032 121.354 23.1037 120.794 25.4242 120.314C25.9043 120.474 26.1443 120.474 26.1443 120.314C26.1443 120.154 26.3444 120.234 26.7444 120.554C29.625 119.674 32.9457 118.834 36.7065 118.034C40.4673 117.153 44.4681 116.833 48.7089 117.073C49.2691 116.753 49.9492 116.593 50.7494 116.593C51.5495 116.513 52.3897 116.473 53.2699 116.473C54.1501 116.473 54.9902 116.473 55.7904 116.473C56.5906 116.393 57.2707 116.233 57.8308 115.993C58.3109 116.553 59.0311 116.913 59.9913 117.073C60.9515 117.153 61.9517 117.553 62.9919 118.274C63.3119 118.354 63.3119 118.234 62.9919 117.913C62.6718 117.513 62.7118 117.233 63.1119 117.073C64.1521 117.073 65.0723 117.313 65.8725 117.793C66.6726 118.274 67.3928 118.834 68.0329 119.474C68.7531 120.034 69.3932 120.554 69.9533 121.034C70.5934 121.514 71.2736 121.754 71.9937 121.754C72.7139 122.634 73.5541 123.475 74.5143 124.275C75.5545 124.995 76.5147 125.755 77.3948 126.555C78.355 127.355 79.1152 128.236 79.6753 129.196C80.3154 130.156 80.6355 131.236 80.6355 132.436C80.5555 132.917 80.7155 133.197 81.1156 133.277C81.5157 133.357 81.7957 133.597 81.9558 133.997C82.0358 136.957 81.5557 139.518 80.5155 141.678C79.5553 143.839 78.315 145.839 76.7947 147.68C75.2744 149.44 73.6341 151.12 71.8737 152.721C70.1934 154.321 68.633 156.041 67.1927 157.882C68.1529 159.082 69.2332 160.202 70.4334 161.242C71.7137 162.203 72.9939 163.163 74.2742 164.123C75.5545 165.083 76.7547 166.123 77.8749 167.244C79.0752 168.284 80.0754 169.484 80.8756 170.844C81.1156 171.324 81.6357 171.645 82.4359 171.805C82.6759 172.765 82.996 173.765 83.3961 174.805C83.8762 175.765 84.3163 176.726 84.7163 177.686C85.1164 178.566 85.3565 179.366 85.4365 180.086C85.5165 180.806 85.3165 181.407 84.8364 181.887C85.3965 182.207 85.7166 182.727 85.7966 183.447C85.8766 184.087 85.8766 184.607 85.7966 185.007C84.0362 187.168 82.836 188.688 82.1958 189.568C81.5557 190.448 81.0756 191.089 80.7555 191.489C80.4355 191.889 80.1154 192.249 79.7953 192.569C79.4753 192.889 78.7551 193.529 77.6349 194.489C73.394 197.05 68.9531 199.37 64.3122 201.451C59.7512 203.451 54.9902 204.811 50.0292 205.532C49.6291 206.092 49.029 206.532 48.2288 206.852C47.5087 207.252 46.6685 207.572 45.7083 207.812C44.7481 208.052 43.7079 208.252 42.5877 208.412C41.5475 208.572 40.5873 208.732 39.7071 208.892C39.307 208.732 39.067 208.452 38.9869 208.052C38.9869 207.732 38.7869 207.492 38.3868 207.332C38.3068 208.292 37.8667 208.772 37.0666 208.772C36.3464 208.852 35.4262 208.692 34.306 208.292C33.1858 207.892 32.0255 207.332 30.8253 206.612C29.625 205.892 28.5848 205.211 27.7046 204.571C27.3045 205.291 26.7844 206.052 26.1443 206.852C25.5842 207.652 24.9841 208.212 24.3439 208.532C23.2237 208.372 22.3835 208.252 21.8234 208.172C21.3433 208.092 20.8632 208.292 20.3831 208.772C19.743 208.452 19.2629 208.092 18.9428 207.692C18.6228 207.372 18.3027 207.012 17.9826 206.612C17.6626 206.292 17.3025 206.012 16.9024 205.772C16.5023 205.451 15.9022 205.171 15.102 204.931C15.2621 204.531 15.142 203.931 14.742 203.131C14.3419 202.251 13.7818 201.731 13.0616 201.571C13.4617 200.931 13.3017 200.13 12.5815 199.17C11.8614 198.13 11.3013 196.97 10.9012 195.689C10.9812 195.129 11.0212 194.569 11.0212 194.009C11.1012 193.369 11.1812 192.809 11.2612 192.329C11.4213 191.769 11.6213 191.289 11.8614 190.889C12.1014 190.488 12.5015 190.208 13.0616 190.048C12.9816 189.008 12.6615 188.008 12.1014 187.048C12.8216 186.488 13.3017 185.807 13.5417 185.007C13.7818 184.127 13.9818 183.247 14.1418 182.367C14.3819 181.487 14.6619 180.646 14.982 179.846C15.3021 178.966 15.8222 178.246 16.5423 177.686C16.3823 177.446 16.2223 177.246 16.0622 177.086C15.9022 176.926 15.8222 176.646 15.8222 176.245C17.0224 174.245 17.8626 172.565 18.3427 171.204C18.8228 169.764 19.1829 168.404 19.4229 167.124C19.743 165.763 20.0631 164.323 20.3831 162.803C20.7032 161.282 21.3433 159.362 22.3035 157.042C22.2235 155.601 22.3835 154.321 22.7836 153.201C23.1837 152.081 23.5838 151 23.9839 149.96C24.464 148.84 24.824 147.68 25.0641 146.479C25.3041 145.279 25.2641 143.879 24.9441 142.279C23.5838 142.439 22.5836 142.919 21.9434 143.719C21.3833 144.519 21.0233 145.599 20.8632 146.959C20.1431 147.6 19.2229 147.92 18.1027 147.92C16.9824 147.84 15.9822 147.96 15.102 148.28ZM67.9129 171.445C64.8723 169.764 62.0717 168.764 59.5112 168.444C57.0307 168.124 54.6302 168.164 52.3097 168.564C50.0692 168.884 47.9088 169.364 45.8284 170.004C43.7479 170.644 41.6675 171.124 39.5871 171.445C38.5469 174.165 37.4666 177.166 36.3464 180.446C35.2262 183.727 34.146 186.928 33.1057 190.048C35.9863 189.648 38.6269 189.048 41.0274 188.248C43.4279 187.448 45.7483 186.568 47.9888 185.607C50.2293 184.567 52.4297 183.567 54.5902 182.607C56.7506 181.567 58.9911 180.606 61.3115 179.726C61.5516 178.766 62.0717 178.006 62.8719 177.446C63.672 176.886 64.4722 176.366 65.2724 175.885C66.0725 175.325 66.7527 174.725 67.3128 174.085C67.8729 173.445 68.0729 172.565 67.9129 171.445ZM59.5112 133.877C54.5501 133.717 49.6691 134.157 44.8682 135.197C40.0672 136.237 36.0263 137.758 32.7457 139.758C34.346 141.118 35.9863 142.319 37.6667 143.359C39.427 144.399 40.7473 145.799 41.6275 147.56C45.4683 146.039 48.829 144.119 51.7096 141.798C54.5902 139.398 57.1907 136.757 59.5112 133.877Z" fill="white"/>
<path d="M98.6968 202.171C98.0567 201.531 97.5766 200.771 97.2565 199.89C97.0165 199.01 96.3763 198.29 95.3361 197.73C95.1761 196.53 94.936 195.169 94.616 193.649C94.3759 192.049 94.0959 190.448 93.7758 188.848C93.5358 187.168 93.3357 185.527 93.1757 183.927C93.0957 182.247 93.1757 180.726 93.4157 179.366C93.5758 178.646 93.8158 177.966 94.1359 177.326C94.536 176.686 94.896 176.085 95.2161 175.525C95.6162 174.885 95.8962 174.245 96.0563 173.605C96.2963 172.965 96.3363 172.325 96.1763 171.685C96.6564 171.605 96.9365 171.364 97.0165 170.964C97.1765 170.484 97.5766 170.324 98.2167 170.484C98.7768 168.724 99.377 167.084 100.017 165.563C100.657 164.043 101.337 162.563 102.058 161.122C102.778 159.682 103.498 158.242 104.218 156.801C105.018 155.281 105.738 153.601 106.378 151.76C105.018 150.48 104.018 149.12 103.378 147.68C102.818 146.159 102.378 144.639 102.058 143.119C101.737 141.598 101.497 140.078 101.337 138.558C101.177 136.957 100.857 135.357 100.377 133.757C101.337 132.316 102.498 131.156 103.858 130.276C105.218 129.316 106.698 128.556 108.299 127.996C109.979 127.355 111.78 126.875 113.7 126.555C115.62 126.155 117.661 125.715 119.821 125.235C123.662 124.035 127.103 123.115 130.143 122.474C133.184 121.754 136.145 121.194 139.025 120.794C141.906 120.314 144.906 119.914 148.027 119.594C151.148 119.194 154.748 118.634 158.829 117.913C158.909 118.154 159.029 118.274 159.189 118.274C159.429 118.274 159.709 118.274 160.029 118.274C160.269 118.834 160.71 119.114 161.35 119.114C161.35 118.874 161.31 118.674 161.23 118.514C161.23 118.274 161.23 118.074 161.23 117.913C161.39 117.913 161.59 117.954 161.83 118.034C162.15 118.114 162.39 118.194 162.55 118.274C162.79 118.354 162.99 118.354 163.15 118.274C163.31 118.114 163.35 117.833 163.27 117.433C164.23 119.114 165.471 120.514 166.991 121.634C168.511 122.674 170.192 123.595 172.032 124.395C172.112 125.115 172.112 125.635 172.032 125.955C172.032 126.275 171.992 126.595 171.912 126.915C171.832 127.155 171.792 127.475 171.792 127.876C171.792 128.196 171.872 128.676 172.032 129.316C170.752 131.476 169.271 133.157 167.591 134.357C165.991 135.557 164.27 136.477 162.43 137.117C160.59 137.758 158.629 138.238 156.549 138.558C154.548 138.878 152.468 139.238 150.307 139.638C148.227 139.958 146.107 140.438 143.946 141.078C141.786 141.718 139.665 142.679 137.585 143.959C136.945 143.719 136.345 143.639 135.784 143.719C135.304 143.719 134.784 143.799 134.224 143.959C133.664 144.119 133.024 144.279 132.304 144.439C131.664 144.599 130.863 144.599 129.903 144.439C129.263 144.999 128.503 145.399 127.623 145.639C126.823 145.879 125.982 146.119 125.102 146.359C125.502 147.24 125.662 148.12 125.582 149C125.582 149.88 125.702 150.64 125.942 151.28C129.303 151.6 133.024 151.6 137.105 151.28C141.186 150.88 145.186 150.6 149.107 150.44C149.187 150.84 149.147 151.12 148.987 151.28C148.827 151.44 148.747 151.72 148.747 152.121C149.467 152.601 150.147 153.201 150.788 153.921C151.428 154.641 152.068 155.361 152.708 156.081C153.428 156.721 154.148 157.282 154.868 157.762C155.589 158.162 156.429 158.322 157.389 158.242C157.789 159.042 158.069 159.882 158.229 160.762C158.389 161.642 158.269 162.563 157.869 163.523C156.269 164.563 154.708 165.643 153.188 166.764C151.668 167.804 150.067 168.764 148.387 169.644C146.787 170.524 145.026 171.244 143.106 171.805C141.186 172.365 139.105 172.605 136.865 172.525C136.465 172.525 136.105 172.525 135.784 172.525C135.544 172.525 135.224 172.365 134.824 172.045C134.024 172.445 132.944 172.605 131.584 172.525C130.303 172.365 129.223 172.485 128.343 172.885C127.223 172.485 125.902 172.285 124.382 172.285C122.942 172.285 121.662 172.085 120.541 171.685C119.101 173.765 117.741 175.965 116.46 178.286C115.18 180.526 114.06 182.927 113.1 185.487C116.38 185.967 119.101 186.168 121.261 186.088C123.422 186.007 125.462 185.847 127.383 185.607C129.303 185.367 131.264 185.127 133.264 184.887C135.344 184.647 137.865 184.567 140.825 184.647C142.826 183.687 145.106 183.047 147.667 182.727C150.307 182.327 152.748 181.767 154.988 181.046C155.789 181.287 156.469 181.767 157.029 182.487C157.589 183.127 158.109 183.807 158.589 184.527C159.149 185.167 159.709 185.727 160.269 186.208C160.83 186.688 161.55 186.848 162.43 186.688C162.83 187.088 163.07 187.568 163.15 188.128C163.31 188.688 163.43 189.208 163.51 189.688C163.67 190.168 163.87 190.568 164.11 190.889C164.35 191.129 164.79 191.209 165.431 191.129C163.91 194.249 162.19 196.65 160.269 198.33C158.429 200.01 156.309 201.331 153.908 202.291C151.588 203.171 148.947 203.851 145.987 204.331C143.106 204.731 139.865 205.251 136.265 205.892C135.384 206.052 134.624 206.052 133.984 205.892C133.424 205.652 132.824 205.532 132.184 205.532C129.943 205.932 127.263 206.332 124.142 206.732C121.101 207.132 118.021 207.292 114.9 207.212C111.78 207.132 108.779 206.732 105.898 206.012C103.018 205.291 100.617 204.011 98.6968 202.171Z" fill="white"/>
<path d="M168.369 194.849L169.929 193.649L170.049 191.129C172.049 186.248 174.09 181.567 176.17 177.086C178.331 172.605 180.571 168.004 182.892 163.283C183.612 161.763 184.332 160.242 185.052 158.722C185.852 157.202 186.612 155.641 187.333 154.041C187.253 153.721 187.213 153.401 187.213 153.081C187.213 152.681 187.293 152.241 187.453 151.76C188.573 150.16 189.453 148.72 190.093 147.44C190.813 146.159 191.494 144.839 192.134 143.479C192.854 141.878 193.614 140.278 194.414 138.678C195.294 137.077 196.375 135.517 197.655 133.997L198.495 132.797L199.815 132.917C200.135 132.757 200.455 132.637 200.775 132.557C201.175 132.396 201.656 132.316 202.216 132.316L204.376 132.677C207.017 131.476 209.337 129.756 211.338 127.515C213.418 125.195 215.498 122.434 217.579 119.234L219.019 117.193L220.94 118.394C221.34 118.634 221.98 118.874 222.86 119.114C223.74 119.354 224.66 119.634 225.621 119.954C227.301 120.354 228.941 120.834 230.542 121.394C232.142 121.874 233.382 122.554 234.262 123.435L234.862 124.515C235.022 125.395 235.142 126.195 235.222 126.915C235.383 127.635 235.543 128.356 235.703 129.076C236.023 130.756 236.303 132.436 236.543 134.117C236.783 135.717 236.943 137.518 237.023 139.518C237.423 141.118 237.783 142.759 238.103 144.439C238.503 146.039 238.863 147.64 239.183 149.24C239.583 151.56 240.023 153.801 240.504 155.961C240.984 158.042 241.624 160.042 242.424 161.963C243.224 161.963 243.704 162.003 243.864 162.083C244.824 161.682 245.945 161.442 247.225 161.362L248.785 161.242L249.265 162.683C249.425 162.923 249.625 163.163 249.865 163.403C250.106 163.643 250.386 163.883 250.706 164.123C251.986 164.203 252.906 164.483 253.466 164.963C254.106 165.363 254.626 165.763 255.027 166.163C255.187 166.323 255.387 166.523 255.627 166.764C255.867 166.924 256.067 167.044 256.227 167.124L258.387 167.964L257.187 170.244C256.307 171.925 254.947 173.565 253.106 175.165C251.346 176.766 249.345 178.086 247.105 179.126C247.265 179.686 247.345 180.206 247.345 180.686C247.425 181.167 247.545 181.727 247.705 182.367C248.025 183.967 248.265 185.647 248.425 187.408C248.665 189.088 248.665 190.848 248.425 192.689C247.625 194.769 246.665 196.65 245.545 198.33C244.504 199.93 243.224 201.411 241.704 202.771C240.264 204.051 238.623 205.131 236.783 206.012C234.942 206.812 233.022 207.252 231.022 207.332C229.901 207.092 229.061 206.812 228.501 206.492C228.021 206.172 227.581 205.852 227.181 205.532C226.541 205.051 226.021 204.731 225.621 204.571L224.06 203.851L224.54 202.051C224.78 201.411 224.74 200.851 224.42 200.37C224.18 199.89 223.62 199.25 222.74 198.45C222.42 198.21 222.14 197.97 221.9 197.73C221.66 197.41 221.38 197.09 221.06 196.77L218.659 194.009L222.62 192.929C225.02 192.289 226.621 191.489 227.421 190.528C228.221 189.488 228.541 187.688 228.381 185.127C226.381 184.727 224.74 184.687 223.46 185.007C222.18 185.247 220.9 185.527 219.619 185.847C217.779 186.328 215.979 186.768 214.218 187.168C212.458 187.488 210.537 187.648 208.457 187.648C207.097 187.648 205.656 187.528 204.136 187.288L202.816 187.168L202.456 185.847C202.456 185.687 202.336 185.527 202.096 185.367C201.936 185.127 201.776 184.927 201.616 184.767C201.216 184.287 200.735 183.647 200.175 182.847C199.615 182.047 199.495 181.046 199.815 179.846C199.255 178.966 198.935 178.046 198.855 177.086C198.535 177.726 198.255 178.366 198.015 179.006C197.855 179.566 197.695 180.126 197.535 180.686L197.055 182.247L195.494 182.487C195.334 182.647 195.174 182.887 195.014 183.207C194.934 183.527 194.934 183.767 195.014 183.927L195.494 185.247L194.294 186.328C194.134 186.568 193.934 186.768 193.694 186.928C193.454 187.088 193.254 187.248 193.094 187.408C192.934 188.288 192.694 189.128 192.374 189.928C192.134 190.728 191.854 191.529 191.534 192.329C191.133 193.609 190.733 194.849 190.333 196.05C190.013 197.25 189.853 198.45 189.853 199.65L189.373 201.211C188.973 201.851 188.453 202.331 187.813 202.651C187.253 202.971 186.693 203.251 186.132 203.491C185.332 203.811 184.772 204.131 184.452 204.451L184.092 206.012L182.292 206.252C181.251 206.492 180.491 206.652 180.011 206.732C179.611 206.812 179.131 206.852 178.571 206.852L177.011 206.732C176.05 205.772 175.25 205.051 174.61 204.571C174.05 204.011 173.37 203.531 172.57 203.131L171.849 202.171C171.529 201.531 171.329 200.971 171.249 200.49C171.169 199.93 171.049 199.37 170.889 198.81C170.729 197.77 170.489 197.05 170.169 196.65L168.369 194.849ZM206.657 163.643C205.536 165.243 204.456 166.924 203.416 168.684C203.976 168.604 204.496 168.564 204.976 168.564C205.536 168.564 206.097 168.524 206.657 168.444C209.457 168.284 212.058 168.084 214.458 167.844C216.859 167.604 219.459 167.204 222.26 166.644C221.62 163.683 220.9 160.682 220.099 157.642C219.379 154.521 218.579 151.4 217.699 148.28L217.099 149.48C215.098 151.64 213.178 153.961 211.338 156.441C209.497 158.922 207.977 161.282 206.777 163.523L206.657 163.643Z" fill="white"/>
<path d="M263.606 195.93C263.206 196.01 262.846 195.729 262.526 195.089C262.206 194.369 261.846 193.689 261.445 193.049H262.766C262.206 191.289 262.046 189.688 262.286 188.248C262.606 186.728 262.966 185.287 263.366 183.927C263.766 182.487 264.086 181.126 264.326 179.846C264.646 178.486 264.526 177.086 263.966 175.645C264.366 175.885 264.646 175.805 264.806 175.405C265.046 174.925 265.206 174.365 265.286 173.725C265.446 173.005 265.486 172.285 265.406 171.565C265.406 170.764 265.366 170.124 265.286 169.644C266.326 167.164 267.127 164.603 267.687 161.963C268.327 159.322 268.887 156.721 269.367 154.161C269.847 151.52 270.367 149 270.927 146.599C271.568 144.119 272.368 141.798 273.328 139.638C274.448 139.478 275.608 139.638 276.809 140.118C278.089 140.518 278.929 141.038 279.329 141.678C281.81 139.758 284.01 137.438 285.931 134.717C287.851 131.996 289.771 129.356 291.692 126.795C293.692 124.155 295.933 121.834 298.413 119.834C300.894 117.833 303.974 116.633 307.655 116.233C309.575 117.593 311.736 119.074 314.136 120.674C316.537 122.194 318.497 124.115 320.018 126.435C320.658 126.835 321.258 127.275 321.818 127.756C322.458 128.156 323.098 128.556 323.738 128.956V130.756C324.859 131.796 325.779 133.037 326.499 134.477C327.299 135.837 327.979 137.317 328.539 138.918C329.179 140.438 329.78 141.998 330.34 143.599C330.9 145.199 331.54 146.679 332.26 148.04C332.1 148.52 332.02 148.96 332.02 149.36C332.1 149.68 332.18 150.04 332.26 150.44C332.42 150.76 332.54 151.16 332.62 151.64C332.7 152.041 332.74 152.561 332.74 153.201C332.42 157.442 331.02 160.882 328.539 163.523C326.139 166.083 323.178 168.204 319.657 169.884C316.217 171.485 312.536 172.885 308.615 174.085C304.694 175.205 301.134 176.446 297.933 177.806C297.933 178.126 298.093 178.286 298.413 178.286C298.813 178.286 298.933 178.526 298.773 179.006C301.174 180.446 303.014 181.607 304.294 182.487C305.655 183.367 306.895 184.127 308.015 184.767C309.215 185.327 310.496 185.807 311.856 186.208C313.296 186.608 315.257 187.088 317.737 187.648C320.218 188.208 322.138 188.688 323.498 189.088C324.939 189.408 326.219 189.688 327.339 189.928C328.459 190.088 329.659 190.248 330.94 190.408C332.22 190.568 333.94 190.768 336.101 191.009C336.981 191.889 337.701 192.929 338.261 194.129C338.821 195.329 339.221 196.53 339.462 197.73C339.702 198.93 339.742 200.09 339.582 201.211C339.502 202.251 339.181 203.091 338.621 203.731C338.701 204.051 338.901 204.211 339.221 204.211C339.622 204.131 340.022 204.131 340.422 204.211C339.862 204.611 339.381 205.091 338.981 205.652C338.581 206.212 338.181 206.772 337.781 207.332C337.381 207.892 336.901 208.412 336.341 208.892C335.861 209.372 335.221 209.652 334.42 209.732C331.54 210.853 327.859 210.893 323.378 209.852C318.897 208.812 313.176 206.972 306.215 204.331C302.774 203.051 299.973 201.891 297.813 200.851C295.653 199.81 293.772 198.81 292.172 197.85C290.571 196.81 289.091 195.729 287.731 194.609C286.371 193.409 284.81 192.009 283.05 190.408C282.81 190.488 282.65 190.648 282.57 190.889C282.57 191.129 282.45 191.289 282.21 191.369C281.81 194.569 281.17 197.17 280.289 199.17C279.489 201.171 278.289 203.211 276.689 205.291C275.408 205.051 274.528 205.171 274.048 205.652C273.648 206.132 273.128 206.572 272.488 206.972C271.688 207.132 271.087 207.092 270.687 206.852C270.287 206.692 269.927 206.492 269.607 206.252C269.287 206.012 268.927 205.772 268.527 205.532C268.127 205.291 267.487 205.211 266.607 205.291C266.366 204.571 266.126 203.891 265.886 203.251C265.646 202.531 265.006 202.211 263.966 202.291C264.206 201.571 264.286 200.971 264.206 200.49C264.126 199.93 264.006 199.45 263.846 199.05C263.686 198.57 263.526 198.09 263.366 197.61C263.286 197.13 263.366 196.57 263.606 195.93ZM303.694 141.078C302.654 142.599 301.494 143.999 300.213 145.279C298.933 146.479 297.653 147.76 296.373 149.12C295.172 150.4 294.092 151.84 293.132 153.441C292.172 154.961 291.492 156.801 291.092 158.962C294.452 158.562 297.973 157.642 301.654 156.201C305.335 154.681 308.815 153.241 312.096 151.88C311.696 148.92 310.656 146.559 308.975 144.799C307.295 142.959 305.535 141.718 303.694 141.078Z" fill="white"/>
<path d="M343.72 152.121C343.96 150.92 344.12 149.96 344.2 149.24C344.28 148.44 344 147.6 343.36 146.719C343.68 145.439 343.92 144.439 344.08 143.719C344.32 142.999 344.36 141.998 344.2 140.718C344.92 138.638 346 136.877 347.441 135.437C348.961 133.997 350.601 132.797 352.362 131.836C354.122 130.796 355.963 129.956 357.883 129.316C359.803 128.596 361.604 127.996 363.284 127.515C363.284 127.195 363.124 127.035 362.804 127.035C362.484 127.035 362.404 126.835 362.564 126.435C366.885 125.635 371.206 124.475 375.527 122.955C379.927 121.434 384.408 120.074 388.969 118.874C393.53 117.673 398.211 116.953 403.012 116.713C407.813 116.393 412.854 116.993 418.135 118.514C418.455 119.474 418.895 120.394 419.456 121.274C420.016 122.154 420.576 123.035 421.136 123.915C421.776 124.715 422.336 125.515 422.816 126.315C423.296 127.115 423.576 127.956 423.656 128.836C424.617 129.716 425.377 130.676 425.937 131.716C426.577 132.677 426.697 133.997 426.297 135.677C425.417 136.317 424.497 136.957 423.536 137.598C422.576 138.238 421.576 138.838 420.536 139.398C416.935 138.518 413.334 138.198 409.734 138.438C406.133 138.678 402.892 138.958 400.012 139.278C399.131 138.318 398.091 137.878 396.891 137.958C395.691 137.958 394.41 138.158 393.05 138.558C391.77 138.878 390.49 139.238 389.209 139.638C387.929 139.958 386.729 140.038 385.609 139.878C384.728 140.678 383.568 141.238 382.128 141.558C380.688 141.798 379.167 141.998 377.567 142.158C377.487 142.559 377.567 142.839 377.807 142.999C378.047 143.159 378.087 143.479 377.927 143.959C378.487 144.679 379.247 145.199 380.207 145.519C381.168 145.759 382.128 145.999 383.088 146.239C384.128 146.479 385.048 146.839 385.849 147.32C386.649 147.72 387.169 148.4 387.409 149.36C388.849 149.44 390.09 149.84 391.13 150.56C392.17 151.2 393.05 152.001 393.77 152.961C394.49 153.921 395.011 154.961 395.331 156.081C395.651 157.122 395.771 158.082 395.691 158.962C396.011 159.762 396.331 160.082 396.651 159.922C397.051 159.762 397.491 159.962 397.971 160.522C398.291 161.723 399.011 163.003 400.132 164.363C401.332 165.643 402.252 167.044 402.892 168.564C403.052 170.964 403.172 173.125 403.252 175.045C403.412 176.966 403.092 178.846 402.292 180.686C400.932 184.207 398.971 187.368 396.411 190.168C393.85 192.969 390.93 195.449 387.649 197.61C384.448 199.69 381.048 201.531 377.447 203.131C373.846 204.651 370.285 205.932 366.765 206.972C366.445 206.892 366.045 206.892 365.564 206.972C365.164 207.052 365.084 206.812 365.324 206.252C364.604 206.892 363.764 207.292 362.804 207.452C361.924 207.612 360.924 207.652 359.803 207.572C358.763 207.572 357.683 207.532 356.563 207.452C355.522 207.372 354.482 207.412 353.442 207.572C352.802 206.932 352.202 206.292 351.642 205.652C351.162 205.011 350.761 204.251 350.441 203.371C350.041 203.291 349.841 203.051 349.841 202.651C349.921 202.171 349.761 201.931 349.361 201.931C349.361 201.611 349.401 201.371 349.481 201.211C349.561 201.051 349.641 200.891 349.721 200.731C350.041 200.49 350.161 200.33 350.081 200.25C350.081 200.09 349.961 199.97 349.721 199.89C349.561 199.73 349.361 199.57 349.121 199.41C348.961 199.25 348.921 199.05 349.001 198.81C349.401 198.09 349.521 197.25 349.361 196.29C349.281 195.249 349.201 194.209 349.121 193.169C349.041 192.129 349.121 191.169 349.361 190.288C349.601 189.328 350.281 188.528 351.402 187.888C354.682 188.208 357.763 188.048 360.643 187.408C363.604 186.768 366.365 185.887 368.925 184.767C371.566 183.647 374.046 182.447 376.367 181.167C378.767 179.806 381.088 178.566 383.328 177.446C383.568 176.646 383.928 175.965 384.408 175.405C384.968 174.845 385.529 174.325 386.089 173.845C386.649 173.285 387.169 172.725 387.649 172.165C388.129 171.525 388.489 170.764 388.729 169.884C388.809 169.564 388.809 169.324 388.729 169.164C388.649 169.004 388.529 168.884 388.369 168.804C388.209 168.644 388.049 168.484 387.889 168.324C387.729 168.164 387.649 167.924 387.649 167.604C387.409 167.524 387.169 167.444 386.929 167.364C386.769 167.284 386.609 167.244 386.449 167.244C384.368 166.203 382.168 165.323 379.847 164.603C377.527 163.883 375.567 163.083 373.966 162.203C373.006 162.843 372.046 163.003 371.086 162.683C370.125 162.363 368.965 162.043 367.605 161.723C364.244 161.562 361.044 161.242 358.003 160.762C355.042 160.282 352.162 159.442 349.361 158.242C349.201 157.762 349.001 157.362 348.761 157.042C348.521 156.641 347.961 156.521 347.081 156.681C346.521 155.881 345.92 155.161 345.28 154.521C344.72 153.801 344.2 153.001 343.72 152.121Z" fill="white"/>
</svg>
