<svg width="106" height="203" viewBox="0 0 106 203" fill="none" xmlns="http://www.w3.org/2000/svg">
<path d="M10.1126 181V46.1656H39.3012C46.094 46.1656 51.5078 47.2126 55.5426 49.3066C59.5774 51.3495 62.4886 54.6183 64.2762 59.1127C66.1148 63.5561 67.0342 69.4041 67.0342 76.6565V80.7935C67.0342 87.7906 66.1148 93.5619 64.2762 98.1075C62.4886 102.602 59.4753 105.743 55.2362 107.531C58.7602 108.705 61.5693 110.825 63.6633 113.889C65.8084 116.903 67.3406 120.605 68.2599 124.998C69.1793 129.339 69.6389 134.114 69.6389 139.324V142.771C69.5878 151.76 68.5408 159.089 66.4979 164.759C64.4549 170.377 61.2628 174.488 56.9216 177.093C52.5803 179.698 46.9111 181 39.9141 181H10.1126ZM30.6442 165.065H37.9222C40.6291 165.065 42.7742 164.478 44.3575 163.303C45.9918 162.077 47.1665 160.06 47.8815 157.251C48.5966 154.442 48.9541 150.611 48.9541 145.759V134.88C48.9541 128.343 48.3157 123.593 47.0388 120.631C45.8131 117.618 43.2338 116.111 39.3012 116.111H30.6442V165.065ZM30.6442 100.712H38.2286C40.0162 100.712 41.4718 100.457 42.5954 99.9461C43.719 99.4354 44.5873 98.5671 45.2002 97.3414C45.8131 96.0645 46.2217 94.3025 46.4259 92.0552C46.6813 89.808 46.809 86.9479 46.809 83.4749V75.3542C46.809 71.7279 46.477 68.9699 45.8131 67.0802C45.1491 65.1905 44.1276 63.9137 42.7486 63.2497C41.4207 62.5857 39.6842 62.2538 37.5391 62.2538H30.6442V100.712Z" fill="white"/>
<path d="M74.9415 55V52.2303L88.4665 37.0272C90.2321 35.0325 91.654 33.3276 92.7323 31.9124C93.8105 30.4972 94.5922 29.1899 95.0774 27.9903C95.5761 26.7908 95.8254 25.5441 95.8254 24.2502C95.8254 22.6733 95.4548 21.2986 94.7135 20.126C93.9857 18.9399 92.9816 18.0167 91.7012 17.3563C90.4208 16.6959 88.9787 16.3656 87.3748 16.3656C85.6766 16.3656 84.1873 16.7295 82.9069 17.4574C81.64 18.1852 80.6561 19.1825 79.9552 20.4494C79.2544 21.7164 78.904 23.172 78.904 24.8163H75.2852C75.2852 22.525 75.8108 20.4966 76.8621 18.731C77.9268 16.9519 79.3757 15.557 81.2087 14.5461C83.0552 13.5353 85.1442 13.0299 87.4759 13.0299C89.7806 13.0299 91.8293 13.5286 93.6218 14.5259C95.4144 15.5098 96.8228 16.8508 97.8471 18.5491C98.8715 20.2473 99.3836 22.1477 99.3836 24.2502C99.3836 25.7732 99.1141 27.249 98.5749 28.6777C98.0493 30.1063 97.1395 31.6967 95.8457 33.4489C94.5518 35.201 92.7592 37.344 90.468 39.8778L80.1978 51.3408V51.6036H100.677V55H74.9415Z" fill="white"/>
</svg>
