<svg width="508" height="190" viewBox="0 0 508 190" fill="none" xmlns="http://www.w3.org/2000/svg">
<path d="M467.003 73.8792H439.087V1.50391H472.079L478.376 27.8222H479.222L478.846 1.50391H506.763V73.8792H476.309L467.379 40.0414H466.533L467.003 73.8792Z" fill="white"/>
<path d="M417.43 54.3284C416.427 60.908 412.949 66.0777 406.996 69.8374C401.043 73.5345 393.242 75.383 383.592 75.383C373.942 75.383 366.14 73.5345 360.187 69.8374C354.297 66.1403 350.819 61.0333 349.754 54.5164C349.503 52.7619 349.284 50.412 349.096 47.4669C348.971 44.4591 348.908 41.232 348.908 37.7855C348.908 34.4644 348.971 31.3939 349.096 28.5741C349.284 25.6916 349.503 23.4358 349.754 21.8066C350.819 14.9137 354.328 9.55604 360.281 5.73362C366.234 1.91121 374.004 0 383.592 0C393.242 0 401.043 1.91121 406.996 5.73362C412.949 9.49338 416.427 14.7257 417.43 21.4306C417.68 23.0598 417.868 25.3157 417.994 28.1981C418.182 31.018 418.276 34.1198 418.276 37.5035C418.276 41.0753 418.182 44.3338 417.994 47.2789C417.868 50.224 417.68 52.5739 417.43 54.3284ZM386.13 50.0047V25.3783C386.13 23.6864 385.284 22.8405 383.592 22.8405C381.9 22.8405 381.054 23.6864 381.054 25.3783V50.0047C381.054 51.6966 381.9 52.5425 383.592 52.5425C385.284 52.5425 386.13 51.6966 386.13 50.0047Z" fill="white"/>
<path d="M328.798 1.50391V29.4201H310.657V73.8792H279.357V29.4201H261.123V1.50391H328.798Z" fill="white"/>
<path d="M237.836 33.6498C234.515 31.6446 230.974 30.172 227.214 29.2321C223.455 28.2295 218.943 27.5402 213.679 27.1642C213.241 27.1015 212.802 27.0702 212.363 27.0702C211.987 27.0076 211.611 26.9762 211.235 26.9762C209.92 26.9762 209.262 27.5089 209.262 28.5741C209.262 29.2007 209.606 29.6394 210.296 29.89C211.047 30.078 212.05 30.2347 213.303 30.36C215.747 30.6733 218.316 31.0493 221.011 31.4879C223.705 31.8639 226.337 32.4592 228.906 33.2738C231.475 34.0884 233.794 35.279 235.862 36.8456C237.992 38.4121 239.653 40.48 240.844 43.0492C242.097 45.6183 242.723 48.8455 242.723 52.7305C242.723 57.0543 241.721 60.6887 239.716 63.6338C237.71 66.5163 234.985 68.8348 231.538 70.5894C228.154 72.2812 224.269 73.5032 219.883 74.2551C215.559 75.0071 211.079 75.383 206.442 75.383C201.053 75.4457 195.695 75.1324 190.369 74.4431C185.105 73.8165 180.437 73.0019 176.364 71.9993L178.996 38.9134C180.437 39.9787 182.16 41.138 184.165 42.3912C186.17 43.5818 188.896 44.6784 192.343 45.681C195.789 46.6836 200.332 47.4669 205.972 48.0308C206.285 48.0935 206.567 48.1248 206.818 48.1248C207.131 48.1248 207.413 48.1248 207.664 48.1248C208.353 48.1248 208.854 48.0308 209.168 47.8428C209.544 47.6549 209.732 47.2476 209.732 46.6209C209.732 45.9316 209.418 45.493 208.792 45.305C208.228 45.117 207.319 44.929 206.066 44.7411C202.682 44.3651 199.298 43.8324 195.914 43.1432C192.593 42.4539 189.554 41.3886 186.797 39.9474C184.04 38.5061 181.815 36.5009 180.124 33.9318C178.494 31.3626 177.68 28.0102 177.68 23.8744C177.68 17.9841 179.058 13.3158 181.815 9.86935C184.635 6.36025 188.426 3.85374 193.189 2.34984C197.951 0.78328 203.277 0 209.168 0C214.118 0 219.288 0.469969 224.677 1.40991C230.066 2.28718 235.392 3.5091 240.656 5.07566L237.836 33.6498Z" fill="white"/>
<path d="M155.647 54.3284C154.644 60.908 151.166 66.0777 145.213 69.8374C139.26 73.5345 131.459 75.383 121.809 75.383C112.159 75.383 104.357 73.5345 98.4044 69.8374C92.5141 66.1403 89.0364 61.0333 87.9711 54.5164C87.7205 52.7619 87.5011 50.412 87.3132 47.4669C87.1878 44.4591 87.1252 41.232 87.1252 37.7855C87.1252 34.4644 87.1878 31.3939 87.3132 28.5741C87.5011 25.6916 87.7205 23.4358 87.9711 21.8066C89.0364 14.9137 92.5455 9.55604 98.4984 5.73362C104.451 1.91121 112.222 0 121.809 0C131.459 0 139.26 1.91121 145.213 5.73362C151.166 9.49338 154.644 14.7257 155.647 21.4306C155.897 23.0598 156.085 25.3157 156.211 28.1981C156.399 31.018 156.493 34.1198 156.493 37.5035C156.493 41.0753 156.399 44.3338 156.211 47.2789C156.085 50.224 155.897 52.5739 155.647 54.3284ZM124.347 50.0047V25.3783C124.347 23.6864 123.501 22.8405 121.809 22.8405C120.117 22.8405 119.271 23.6864 119.271 25.3783V50.0047C119.271 51.6966 120.117 52.5425 121.809 52.5425C123.501 52.5425 124.347 51.6966 124.347 50.0047Z" fill="white"/>
<path d="M60.156 36.2816C62.3492 37.9735 64.0725 40.2294 65.3257 43.0492C66.6416 45.869 67.2996 49.3154 67.2996 53.3885C67.2996 58.5895 66.2656 62.6939 64.1978 65.7017C62.1299 68.7095 59.4041 70.84 56.0203 72.0933C52.6365 73.2839 49.0021 73.8792 45.117 73.8792H0V1.50391H40.8873C44.9604 1.50391 48.8141 2.22454 52.4486 3.66577C56.083 5.04435 59.0281 7.23754 61.284 10.2453C63.6025 13.2531 64.7617 17.1069 64.7617 21.8066C64.7617 25.3157 64.3544 28.2608 63.5398 30.642C62.7879 32.9605 61.6599 34.8404 60.156 36.2816ZM35.7177 25.2844H28.7621V30.36H36.0936C36.5949 30.36 37.1276 30.2034 37.6915 29.89C38.3181 29.5767 38.6315 28.9188 38.6315 27.9162C38.6315 26.8509 38.2555 26.1616 37.5035 25.8483C36.8142 25.4723 36.219 25.2844 35.7177 25.2844ZM28.7621 50.0047H38.5375C39.0388 50.0047 39.5714 49.8481 40.1354 49.5348C40.762 49.2214 41.0753 48.5635 41.0753 47.5609C41.0753 46.4956 40.6993 45.8063 39.9474 45.493C39.2581 45.117 38.6628 44.9291 38.1615 44.9291H28.7621V50.0047Z" fill="white"/>
<path d="M500.565 133.702C496.151 131.036 491.445 129.079 486.447 127.829C481.449 126.497 475.452 125.58 468.455 125.081C467.872 124.997 467.289 124.956 466.706 124.956C466.206 124.872 465.706 124.831 465.207 124.831C463.457 124.831 462.583 125.539 462.583 126.955C462.583 127.788 463.041 128.371 463.957 128.704C464.957 128.954 466.289 129.162 467.955 129.329C471.204 129.745 474.619 130.245 478.201 130.828C481.782 131.328 485.281 132.119 488.696 133.202C492.111 134.285 495.193 135.867 497.942 137.95C500.774 140.032 502.981 142.781 504.564 146.196C506.23 149.611 507.062 153.901 507.062 159.065C507.062 164.813 505.73 169.644 503.064 173.559C500.399 177.39 496.776 180.472 492.194 182.804C487.696 185.053 482.532 186.678 476.701 187.677C470.954 188.677 464.998 189.176 458.835 189.176C451.671 189.26 444.549 188.843 437.469 187.927C430.472 187.094 424.267 186.011 418.853 184.678L422.351 140.699C424.267 142.115 426.558 143.656 429.223 145.321C431.888 146.904 435.512 148.362 440.093 149.694C444.674 151.027 450.713 152.068 458.21 152.818C458.626 152.901 459.001 152.943 459.334 152.943C459.751 152.943 460.126 152.943 460.459 152.943C461.375 152.943 462.041 152.818 462.458 152.568C462.958 152.318 463.208 151.777 463.208 150.944C463.208 150.028 462.791 149.445 461.958 149.195C461.208 148.945 460.001 148.695 458.335 148.445C453.837 147.945 449.339 147.237 444.841 146.321C440.426 145.405 436.386 143.989 432.721 142.073C429.056 140.157 426.099 137.492 423.85 134.077C421.685 130.661 420.602 126.205 420.602 120.708C420.602 112.878 422.434 106.672 426.099 102.091C429.848 97.4266 434.887 94.0948 441.218 92.0957C447.548 90.0134 454.628 88.9722 462.458 88.9722C469.038 88.9722 475.91 89.5969 483.073 90.8463C490.237 92.0124 497.317 93.6367 504.314 95.7191L500.565 133.702Z" fill="white"/>
<path d="M361.674 187.178H324.566V90.9714H368.421L376.792 125.955H377.916L377.417 90.9714H414.525V187.178H374.043L362.173 142.198H361.049L361.674 187.178Z" fill="white"/>
<path d="M318.535 187.302L279.178 187.178V90.9714H318.535V187.302Z" fill="white"/>
<path d="M185.948 90.9714H226.43V153.693C226.43 153.943 226.555 154.567 226.804 155.567C227.138 156.566 228.137 157.066 229.803 157.066C231.469 157.066 232.427 156.566 232.677 155.567C233.01 154.567 233.177 153.943 233.177 153.693V90.9714H273.658V155.442C273.658 160.023 272.908 164.355 271.409 168.436C269.91 172.434 267.453 176.016 264.037 179.181C260.622 182.263 255.999 184.72 250.169 186.553C244.421 188.302 237.258 189.177 228.679 189.177C221.099 189.177 214.602 188.26 209.187 186.428C203.773 184.595 199.359 182.097 195.944 178.931C192.528 175.766 189.988 172.184 188.322 168.186C186.739 164.188 185.948 160.023 185.948 155.692V90.9714Z" fill="white"/>
<path d="M134.173 187.178H94.8154V90.9714H152.039C157.37 90.9714 162.243 91.9293 166.658 93.8451C171.156 95.7609 174.737 98.8428 177.403 103.091C180.068 107.339 181.401 113.003 181.401 120.083C181.401 122.082 181.234 124.248 180.901 126.58C180.651 128.912 180.027 131.245 179.027 133.577C178.027 135.826 176.487 137.867 174.404 139.699C172.405 141.448 169.656 142.823 166.158 143.822L185.899 187.178H142.044L135.297 161.439H134.173V187.178ZM142.794 121.707H130.799V128.454H143.168C143.835 128.454 144.543 128.246 145.292 127.83C146.125 127.413 146.542 126.539 146.542 125.206C146.542 123.79 146.084 122.874 145.167 122.457C144.251 121.957 143.46 121.707 142.794 121.707Z" fill="white"/>
<path d="M80.7046 137.2C83.6199 139.449 85.9105 142.448 87.5764 146.196C89.3256 149.944 90.2002 154.526 90.2002 159.94C90.2002 166.853 88.8259 172.309 86.0771 176.307C83.3284 180.306 79.705 183.138 75.2071 184.804C70.7091 186.386 65.878 187.178 60.7137 187.178H0.741043V90.9714H55.0912C60.5054 90.9714 65.6281 91.9293 70.4592 93.8451C75.2904 95.6776 79.2052 98.5929 82.2039 102.591C85.2858 106.589 86.8268 111.712 86.8268 117.959C86.8268 122.624 86.2853 126.539 85.2025 129.704C84.203 132.786 82.7037 135.285 80.7046 137.2ZM48.2194 122.582H38.9736V129.329H48.7192C49.3855 129.329 50.0935 129.121 50.8432 128.704C51.6761 128.288 52.0926 127.413 52.0926 126.08C52.0926 124.664 51.5928 123.748 50.5933 123.332C49.677 122.832 48.8857 122.582 48.2194 122.582ZM38.9736 155.442H51.9677C52.634 155.442 53.342 155.234 54.0917 154.817C54.9247 154.401 55.3411 153.526 55.3411 152.193C55.3411 150.777 54.8414 149.861 53.8418 149.445C52.9256 148.945 52.1343 148.695 51.4679 148.695H38.9736V155.442Z" fill="white"/>
</svg>
