<svg width="508" height="190" viewBox="0 0 508 190" fill="none" xmlns="http://www.w3.org/2000/svg">
<path d="M467.94 73.8791H440.023V1.50391H473.015L479.313 27.8222H480.159L479.783 1.50391H507.699V73.8791H477.245L468.316 40.0414H467.47L467.94 73.8791Z" fill="white"/>
<path d="M418.365 54.3284C417.363 60.908 413.885 66.0777 407.932 69.8374C401.979 73.5345 394.177 75.383 384.527 75.383C374.877 75.383 367.076 73.5345 361.123 69.8374C355.233 66.1403 351.755 61.0333 350.69 54.5164C350.439 52.7619 350.22 50.412 350.032 47.4669C349.906 44.4591 349.844 41.232 349.844 37.7855C349.844 34.4644 349.906 31.3939 350.032 28.5741C350.22 25.6916 350.439 23.4358 350.69 21.8066C351.755 14.9137 355.264 9.55604 361.217 5.73362C367.17 1.91121 374.94 0 384.527 0C394.177 0 401.979 1.91121 407.932 5.73362C413.885 9.49338 417.363 14.7257 418.365 21.4306C418.616 23.0598 418.804 25.3157 418.929 28.1981C419.117 31.018 419.211 34.1198 419.211 37.5035C419.211 41.0753 419.117 44.3338 418.929 47.2789C418.804 50.224 418.616 52.5739 418.365 54.3284ZM387.065 50.0047V25.3783C387.065 23.6864 386.219 22.8405 384.527 22.8405C382.836 22.8405 381.99 23.6864 381.99 25.3783V50.0047C381.99 51.6966 382.836 52.5425 384.527 52.5425C386.219 52.5425 387.065 51.6966 387.065 50.0047Z" fill="white"/>
<path d="M329.734 1.50391V29.4201H311.593V73.8791H280.293V29.4201H262.059V1.50391H329.734Z" fill="white"/>
<path d="M238.773 33.6498C235.452 31.6446 231.911 30.172 228.151 29.2321C224.392 28.2295 219.88 27.5402 214.616 27.1642C214.178 27.1015 213.739 27.0702 213.3 27.0702C212.924 27.0076 212.548 26.9762 212.172 26.9762C210.857 26.9762 210.199 27.5089 210.199 28.5741C210.199 29.2007 210.543 29.6394 211.233 29.89C211.984 30.078 212.987 30.2347 214.24 30.36C216.684 30.6733 219.253 31.0493 221.948 31.4879C224.642 31.8639 227.274 32.4592 229.843 33.2738C232.412 34.0884 234.731 35.279 236.799 36.8456C238.929 38.4121 240.59 40.48 241.781 43.0492C243.034 45.6183 243.66 48.8455 243.66 52.7305C243.66 57.0543 242.658 60.6887 240.653 63.6338C238.647 66.5163 235.922 68.8348 232.475 70.5894C229.091 72.2812 225.206 73.5032 220.82 74.2551C216.496 75.0071 212.016 75.383 207.379 75.383C201.99 75.4457 196.632 75.1324 191.306 74.4431C186.042 73.8165 181.374 73.0019 177.301 71.9993L179.933 38.9134C181.374 39.9787 183.097 41.138 185.102 42.3912C187.107 43.5818 189.833 44.6784 193.28 45.681C196.726 46.6836 201.269 47.4669 206.909 48.0308C207.222 48.0935 207.504 48.1248 207.755 48.1248C208.068 48.1248 208.35 48.1248 208.601 48.1248C209.29 48.1248 209.791 48.0308 210.105 47.8428C210.481 47.6549 210.669 47.2476 210.669 46.6209C210.669 45.9316 210.355 45.493 209.729 45.305C209.165 45.117 208.256 44.929 207.003 44.7411C203.619 44.3651 200.235 43.8324 196.851 43.1432C193.53 42.4539 190.491 41.3886 187.734 39.9474C184.977 38.5061 182.752 36.5009 181.061 33.9318C179.431 31.3626 178.617 28.0102 178.617 23.8744C178.617 17.9841 179.995 13.3158 182.752 9.86935C185.572 6.36025 189.363 3.85374 194.126 2.34984C198.888 0.78328 204.214 0 210.105 0C215.055 0 220.225 0.469969 225.614 1.40991C231.003 2.28718 236.329 3.5091 241.593 5.07566L238.773 33.6498Z" fill="white"/>
<path d="M156.584 54.3284C155.581 60.908 152.104 66.0777 146.151 69.8374C140.198 73.5345 132.396 75.383 122.746 75.383C113.096 75.383 105.295 73.5345 99.3418 69.8374C93.4515 66.1403 89.9737 61.0333 88.9084 54.5164C88.6578 52.7619 88.4385 50.412 88.2505 47.4669C88.1252 44.4591 88.0625 41.232 88.0625 37.7855C88.0625 34.4644 88.1252 31.3939 88.2505 28.5741C88.4385 25.6916 88.6578 23.4358 88.9084 21.8066C89.9737 14.9137 93.4828 9.55604 99.4358 5.73362C105.389 1.91121 113.159 0 122.746 0C132.396 0 140.198 1.91121 146.151 5.73362C152.104 9.49338 155.581 14.7257 156.584 21.4306C156.835 23.0598 157.023 25.3157 157.148 28.1981C157.336 31.018 157.43 34.1198 157.43 37.5035C157.43 41.0753 157.336 44.3338 157.148 47.2789C157.023 50.224 156.835 52.5739 156.584 54.3284ZM125.284 50.0047V25.3783C125.284 23.6864 124.438 22.8405 122.746 22.8405C121.054 22.8405 120.208 23.6864 120.208 25.3783V50.0047C120.208 51.6966 121.054 52.5425 122.746 52.5425C124.438 52.5425 125.284 51.6966 125.284 50.0047Z" fill="white"/>
<path d="M61.0935 36.2816C63.2867 37.9735 65.01 40.2294 66.2632 43.0492C67.5791 45.869 68.2371 49.3154 68.2371 53.3885C68.2371 58.5895 67.2031 62.6939 65.1353 65.7017C63.0674 68.7095 60.3416 70.84 56.9578 72.0933C53.574 73.2839 49.9396 73.8791 46.0545 73.8791H0.9375V1.50391H41.8248C45.8979 1.50391 49.7516 2.22453 53.3861 3.66577C57.0205 5.04434 59.9656 7.23753 62.2215 10.2453C64.54 13.2531 65.6992 17.1069 65.6992 21.8066C65.6992 25.3157 65.2919 28.2608 64.4773 30.642C63.7254 32.9605 62.5974 34.8404 61.0935 36.2816ZM36.6552 25.2843H29.6996V30.36H37.0311C37.5324 30.36 38.0651 30.2033 38.629 29.89C39.2556 29.5767 39.569 28.9188 39.569 27.9162C39.569 26.8509 39.193 26.1616 38.441 25.8483C37.7517 25.4723 37.1565 25.2843 36.6552 25.2843ZM29.6996 50.0047H39.475C39.9763 50.0047 40.5089 49.8481 41.0729 49.5347C41.6995 49.2214 42.0128 48.5635 42.0128 47.5609C42.0128 46.4956 41.6368 45.8063 40.8849 45.493C40.1956 45.117 39.6003 44.929 39.099 44.929H29.6996V50.0047Z" fill="white"/>
<path d="M501.502 133.702C497.087 131.036 492.381 129.079 487.383 127.829C482.386 126.497 476.388 125.58 469.391 125.081C468.808 124.997 468.225 124.956 467.642 124.956C467.142 124.872 466.643 124.831 466.143 124.831C464.394 124.831 463.519 125.539 463.519 126.955C463.519 127.788 463.977 128.371 464.893 128.704C465.893 128.954 467.226 129.162 468.892 129.329C472.14 129.745 475.555 130.245 479.137 130.828C482.719 131.328 486.217 132.119 489.632 133.202C493.047 134.285 496.129 135.867 498.878 137.95C501.71 140.032 503.917 142.781 505.5 146.196C507.166 149.611 507.999 153.901 507.999 159.065C507.999 164.813 506.666 169.644 504.001 173.559C501.335 177.39 497.712 180.472 493.131 182.804C488.633 185.053 483.468 186.678 477.638 187.677C471.89 188.677 465.935 189.176 459.771 189.176C452.607 189.26 445.486 188.843 438.406 187.927C431.409 187.094 425.203 186.011 419.789 184.679L423.287 140.699C425.203 142.115 427.494 143.656 430.159 145.321C432.825 146.904 436.448 148.362 441.029 149.694C445.611 151.027 451.65 152.068 459.146 152.818C459.563 152.901 459.937 152.943 460.271 152.943C460.687 152.943 461.062 152.943 461.395 152.943C462.311 152.943 462.978 152.818 463.394 152.568C463.894 152.318 464.144 151.777 464.144 150.944C464.144 150.028 463.727 149.445 462.894 149.195C462.145 148.945 460.937 148.695 459.271 148.445C454.773 147.945 450.275 147.237 445.777 146.321C441.363 145.405 437.323 143.989 433.658 142.073C429.993 140.157 427.036 137.492 424.787 134.077C422.621 130.661 421.538 126.205 421.538 120.708C421.538 112.878 423.371 106.672 427.036 102.091C430.784 97.4266 435.823 94.0948 442.154 92.0957C448.484 90.0134 455.564 88.9722 463.394 88.9722C469.975 88.9722 476.846 89.5969 484.01 90.8463C491.173 92.0124 498.253 93.6367 505.25 95.7191L501.502 133.702Z" fill="white"/>
<path d="M362.612 187.178H325.504V90.9714H369.359L377.73 125.955H378.855L378.355 90.9714H415.463V187.178H374.981L363.112 142.198H361.987L362.612 187.178Z" fill="white"/>
<path d="M319.474 187.302L280.117 187.178V90.9714H319.474V187.302Z" fill="white"/>
<path d="M186.887 90.9714H227.368V153.693C227.368 153.943 227.493 154.567 227.743 155.567C228.076 156.567 229.076 157.066 230.742 157.066C232.408 157.066 233.366 156.567 233.615 155.567C233.949 154.567 234.115 153.943 234.115 153.693V90.9714H274.597V155.442C274.597 160.023 273.847 164.355 272.348 168.436C270.848 172.434 268.391 176.016 264.976 179.181C261.561 182.263 256.938 184.72 251.107 186.553C245.36 188.302 238.197 189.177 229.617 189.177C222.037 189.177 215.54 188.26 210.126 186.428C204.712 184.595 200.297 182.097 196.882 178.931C193.467 175.766 190.927 172.184 189.261 168.186C187.678 164.188 186.887 160.023 186.887 155.692V90.9714Z" fill="white"/>
<path d="M135.111 187.178H95.7539V90.9714H152.978C158.309 90.9714 163.181 91.9293 167.596 93.8451C172.094 95.7609 175.676 98.8428 178.341 103.091C181.007 107.339 182.339 113.003 182.339 120.083C182.339 122.082 182.173 124.248 181.84 126.58C181.59 128.912 180.965 131.245 179.965 133.577C178.966 135.826 177.425 137.867 175.343 139.699C173.344 141.448 170.595 142.823 167.096 143.822L186.837 187.178H142.982L136.235 161.439H135.111V187.178ZM143.732 121.707H131.737V128.454H144.107C144.773 128.454 145.481 128.246 146.231 127.83C147.064 127.413 147.48 126.539 147.48 125.206C147.48 123.79 147.022 122.874 146.106 122.457C145.19 121.957 144.398 121.707 143.732 121.707Z" fill="white"/>
<path d="M81.6432 137.2C84.5585 139.449 86.8492 142.448 88.5151 146.196C90.2643 149.945 91.1389 154.526 91.1389 159.94C91.1389 166.853 89.7645 172.309 87.0157 176.307C84.267 180.306 80.6437 183.138 76.1457 184.804C71.6478 186.386 66.8166 187.178 61.6523 187.178H1.67969V90.9714H56.0299C61.4441 90.9714 66.5667 91.9293 71.3979 93.8451C76.229 95.6776 80.1439 98.593 83.1425 102.591C86.2244 106.589 87.7654 111.712 87.7654 117.959C87.7654 122.624 87.224 126.539 86.1411 129.704C85.1416 132.786 83.6423 135.285 81.6432 137.2ZM49.158 122.582H39.9122V129.329H49.6578C50.3242 129.329 51.0322 129.121 51.7818 128.704C52.6148 128.288 53.0313 127.413 53.0313 126.08C53.0313 124.664 52.5315 123.748 51.5319 123.332C50.6157 122.832 49.8244 122.582 49.158 122.582ZM39.9122 155.442H52.9063C53.5727 155.442 54.2807 155.234 55.0303 154.817C55.8633 154.401 56.2798 153.526 56.2798 152.194C56.2798 150.777 55.78 149.861 54.7805 149.445C53.8642 148.945 53.0729 148.695 52.4065 148.695H39.9122V155.442Z" fill="white"/>
</svg>
