<svg width="188" height="93" viewBox="0 0 188 93" fill="none" xmlns="http://www.w3.org/2000/svg">
<path d="M10.7571 54.4806C8.80405 54.4806 7.2477 54.0076 6.08807 53.0616C4.92844 52.1003 4.09686 50.6966 3.59333 48.8503C3.08981 47.0041 2.83805 44.7611 2.83805 42.1214V25.3449C2.83805 23.5749 2.95248 21.9575 3.18136 20.4927C3.41023 19.0127 3.81458 17.7386 4.39439 16.6705C4.98947 15.5872 5.81342 14.7556 6.86624 14.1758C7.91906 13.5807 9.26943 13.2832 10.9173 13.2832C12.4889 13.2832 13.7706 13.5655 14.7624 14.13C15.7542 14.6793 16.5248 15.4728 17.0741 16.5103C17.6234 17.5326 17.9972 18.7533 18.1955 20.1723C18.4092 21.5761 18.516 23.1324 18.516 24.8414V29.3044H13.8698V24.8185C13.8698 22.3161 13.6867 20.447 13.3205 19.211C12.9696 17.9599 12.1685 17.3343 10.9173 17.3343C9.58985 17.3343 8.69724 17.9751 8.23949 19.2568C7.797 20.5233 7.57575 22.3695 7.57575 24.7956V42.2358C7.57575 44.1889 7.65967 45.7758 7.82751 46.9964C7.99536 48.2018 8.30815 49.0792 8.7659 49.6285C9.23891 50.1778 9.91027 50.4524 10.78 50.4524C12.0464 50.4524 12.878 49.8116 13.2747 48.5299C13.6714 47.2482 13.8698 45.1425 13.8698 42.213V37.7499H18.5617V42.1672C18.5617 44.8526 18.3252 47.1109 17.8522 48.9419C17.3945 50.7729 16.601 52.1537 15.4719 53.0845C14.3428 54.0153 12.7712 54.4806 10.7571 54.4806ZM32.275 54V13.7181H37.0127V30.9523H43.467V13.7181H48.2047V54H43.467V34.8203H37.0127V54H32.275ZM62.7648 54V13.7181H67.5025V54H62.7648ZM89.5468 54.4806C87.5937 54.4806 86.0374 54.0076 84.8777 53.0616C83.7181 52.1003 82.8865 50.6966 82.383 48.8503C81.8795 47.0041 81.6277 44.7611 81.6277 42.1214V25.3449C81.6277 23.5749 81.7421 21.9575 81.971 20.4927C82.1999 19.0127 82.6042 17.7386 83.1841 16.6705C83.7791 15.5872 84.6031 14.7556 85.6559 14.1758C86.7087 13.5807 88.0591 13.2832 89.707 13.2832C91.2786 13.2832 92.5603 13.5655 93.5521 14.13C94.5439 14.6793 95.3144 15.4728 95.8637 16.5103C96.413 17.5326 96.7868 18.7533 96.9852 20.1723C97.1988 21.5761 97.3056 23.1324 97.3056 24.8414V29.3044H92.6595V24.8185C92.6595 22.3161 92.4764 20.447 92.1102 19.211C91.7592 17.9599 90.9582 17.3343 89.707 17.3343C88.3795 17.3343 87.4869 17.9751 87.0291 19.2568C86.5867 20.5233 86.3654 22.3695 86.3654 24.7956V42.2358C86.3654 44.1889 86.4493 45.7758 86.6172 46.9964C86.785 48.2018 87.0978 49.0792 87.5556 49.6285C88.0286 50.1778 88.6999 50.4524 89.5697 50.4524C90.8361 50.4524 91.6677 49.8116 92.0644 48.5299C92.4611 47.2482 92.6595 45.1425 92.6595 42.213V37.7499H97.3514V42.1672C97.3514 44.8526 97.1149 47.1109 96.6419 48.9419C96.1841 50.7729 95.3907 52.1537 94.2616 53.0845C93.1325 54.0153 91.5609 54.4806 89.5468 54.4806ZM108.913 54L115.024 13.7181H120.723L127.383 54H122.92L121.776 46.3098H114.475L113.422 54H108.913ZM115.001 42.4647H121.181L118 21.1794H117.931L115.001 42.4647ZM146.613 54.3891C144.278 54.3891 142.485 53.4278 141.234 51.5053C139.983 49.5827 139.357 46.4166 139.357 42.007V25.116C139.357 23.346 139.479 21.7439 139.723 20.3096C139.983 18.8601 140.418 17.6089 141.028 16.5561C141.638 15.5033 142.47 14.6946 143.523 14.13C144.591 13.5655 145.934 13.2832 147.551 13.2832C149.229 13.2832 150.564 13.5731 151.556 14.1529C152.563 14.7175 153.326 15.5262 153.845 16.579C154.364 17.6318 154.707 18.8906 154.875 20.3554C155.043 21.8202 155.127 23.4376 155.127 25.2076V28.3203H150.549V23.079C150.549 21.126 150.351 19.6841 149.954 18.7533C149.573 17.8073 148.772 17.3343 147.551 17.3343C146.254 17.3343 145.354 17.8912 144.85 19.0051C144.347 20.1189 144.095 22.0872 144.095 24.91V41.8468C144.095 44.9289 144.301 47.1338 144.713 48.4612C145.14 49.7887 146.04 50.4524 147.414 50.4524C148.726 50.4524 149.611 49.7887 150.069 48.4612C150.542 47.1185 150.778 44.8832 150.778 41.7552V36.514H147.505V32.852H155.127V54H152.632L151.991 50.8873C151.564 52.0164 150.885 52.8861 149.954 53.4965C149.039 54.0915 147.925 54.3891 146.613 54.3891ZM176.851 54.4577C174.836 54.4577 173.242 54.0153 172.067 53.1303C170.907 52.2453 170.076 50.9102 169.572 49.125C169.084 47.3397 168.84 45.1044 168.84 42.4189V24.6583C168.84 22.339 169.069 20.3249 169.527 18.616C169.984 16.907 170.801 15.5796 171.976 14.6336C173.15 13.6875 174.814 13.2145 176.965 13.2145C178.582 13.2145 179.902 13.4892 180.925 14.0385C181.947 14.5725 182.733 15.3431 183.282 16.3501C183.847 17.3419 184.236 18.5397 184.449 19.9434C184.663 21.3472 184.77 22.9188 184.77 24.6583V42.4189C184.77 45.1044 184.525 47.3397 184.037 49.125C183.564 50.9102 182.748 52.2453 181.588 53.1303C180.444 54.0153 178.865 54.4577 176.851 54.4577ZM176.851 50.3838C177.72 50.3838 178.384 50.1396 178.842 49.6514C179.3 49.1479 179.612 48.3163 179.78 47.1566C179.948 45.997 180.032 44.433 180.032 42.4647V24.3836C180.032 21.9728 179.841 20.1876 179.46 19.0279C179.078 17.8683 178.247 17.2885 176.965 17.2885C175.638 17.2885 174.737 17.8683 174.264 19.0279C173.807 20.1723 173.578 21.9499 173.578 24.3607V42.4647C173.578 44.4483 173.662 46.0199 173.829 47.1795C173.997 48.3239 174.318 49.1479 174.791 49.6514C175.264 50.1396 175.95 50.3838 176.851 50.3838Z" fill="#EFEFEF"/>
<path d="M5.25 89V61.5H10.2188C11.625 61.5 12.7135 61.7083 13.4844 62.125C14.2552 62.5417 14.7969 63.2031 15.1094 64.1094C15.4219 65.0156 15.5833 66.2083 15.5938 67.6875V68.2812C15.5938 69.8125 15.4479 71.0625 15.1562 72.0312C14.875 72.9896 14.3281 73.6823 13.5156 74.1094C14.1719 74.3698 14.6823 74.8229 15.0469 75.4688C15.4115 76.1146 15.6667 76.8906 15.8125 77.7969C15.9688 78.7031 16.0469 79.6771 16.0469 80.7188V81.2969C16.026 83.0885 15.8438 84.5521 15.5 85.6875C15.1667 86.8229 14.6094 87.6615 13.8281 88.2031C13.0469 88.7344 11.9792 89 10.625 89H5.25ZM8.48438 86.3906H10.4688C11.0833 86.3906 11.5573 86.2396 11.8906 85.9375C12.224 85.6354 12.4583 85.1094 12.5938 84.3594C12.7292 83.599 12.7969 82.5469 12.7969 81.2031V80.25C12.7969 78.5521 12.6615 77.3333 12.3906 76.5938C12.1198 75.8438 11.5365 75.4688 10.6406 75.4688H8.48438V86.3906ZM8.48438 72.9844H10.3125C10.75 72.9844 11.1042 72.9375 11.375 72.8438C11.6458 72.7396 11.8542 72.5365 12 72.2344C12.1562 71.9323 12.2604 71.4844 12.3125 70.8906C12.3646 70.2969 12.3906 69.5 12.3906 68.5V67.7344C12.3906 66.6927 12.3125 65.9167 12.1562 65.4062C12 64.8958 11.75 64.5573 11.4062 64.3906C11.0729 64.224 10.6302 64.1406 10.0781 64.1406H8.48438V72.9844ZM48.0737 89V61.5H56.2925V64.1875H51.3081V73.5938H56.0269V76.2812H51.3081V86.3125H56.355V89H48.0737ZM86.8975 89L91.0694 61.5H94.96L99.5069 89H96.46L95.6787 83.75H90.6944L89.9756 89H86.8975ZM91.0537 81.125H95.2725L93.1006 66.5938H93.0537L91.0537 81.125ZM131.034 89V61.5H136.799C138.258 61.5 139.336 61.7604 140.034 62.2812C140.732 62.7917 141.185 63.5677 141.393 64.6094C141.612 65.6406 141.721 66.9427 141.721 68.5156C141.721 70.2135 141.549 71.5625 141.206 72.5625C140.862 73.5625 140.195 74.2083 139.206 74.5C139.706 74.5833 140.117 74.7969 140.44 75.1406C140.773 75.4844 141.034 76.0208 141.221 76.75C141.409 77.4792 141.539 78.4583 141.612 79.6875C141.695 80.9062 141.737 82.4427 141.737 84.2969C141.737 84.474 141.737 84.7292 141.737 85.0625C141.737 85.3958 141.742 85.7604 141.753 86.1562C141.763 86.5521 141.773 86.9427 141.784 87.3281C141.805 87.7135 141.831 88.0573 141.862 88.3594C141.893 88.651 141.935 88.8646 141.987 89H138.768C138.726 88.9062 138.69 88.6979 138.659 88.375C138.628 88.0521 138.601 87.625 138.581 87.0938C138.56 86.5625 138.544 85.9323 138.534 85.2031C138.523 84.4635 138.518 83.6406 138.518 82.7344C138.518 81.8177 138.518 80.8177 138.518 79.7344C138.518 78.6927 138.471 77.901 138.378 77.3594C138.294 76.8073 138.086 76.4271 137.753 76.2188C137.43 76 136.909 75.8698 136.19 75.8281L134.268 75.7188V89H131.034ZM134.268 73.3438H136.331C136.924 73.3438 137.378 73.2292 137.69 73C138.013 72.7604 138.232 72.2917 138.346 71.5938C138.461 70.8854 138.518 69.8281 138.518 68.4219V68.2344C138.518 67.0677 138.461 66.1875 138.346 65.5938C138.242 64.9896 138.034 64.5833 137.721 64.375C137.409 64.1667 136.935 64.0625 136.299 64.0625H134.268V73.3438ZM178.639 89.3125C177.524 89.3125 176.618 89.1146 175.92 88.7188C175.222 88.3125 174.686 87.7396 174.311 87C173.936 86.2604 173.675 85.3906 173.529 84.3906C173.394 83.3802 173.326 82.2656 173.326 81.0469V78.375H176.467V81.1719C176.467 83.099 176.602 84.4792 176.873 85.3125C177.154 86.1354 177.753 86.5469 178.67 86.5469C179.305 86.5469 179.769 86.401 180.061 86.1094C180.363 85.8073 180.555 85.3281 180.639 84.6719C180.722 84.0156 180.764 83.151 180.764 82.0781C180.764 80.849 180.545 79.7917 180.107 78.9062C179.68 78.0208 179.061 77.1719 178.248 76.3594L176.451 74.5625C175.93 74.0312 175.42 73.4531 174.92 72.8281C174.42 72.1927 174.003 71.474 173.67 70.6719C173.347 69.8698 173.186 68.9531 173.186 67.9219C173.186 66.5365 173.331 65.3385 173.623 64.3281C173.915 63.3177 174.446 62.5365 175.217 61.9844C175.988 61.4323 177.081 61.1562 178.498 61.1562C179.613 61.1562 180.503 61.349 181.17 61.7344C181.847 62.1198 182.352 62.6719 182.686 63.3906C183.029 64.099 183.253 64.9427 183.357 65.9219C183.472 66.901 183.529 67.9844 183.529 69.1719V70.7969H180.436V68.9531C180.436 67.8385 180.389 66.9115 180.295 66.1719C180.212 65.4219 180.035 64.8594 179.764 64.4844C179.493 64.1094 179.071 63.9219 178.498 63.9219C177.977 63.9219 177.55 64.0521 177.217 64.3125C176.894 64.5625 176.66 64.9531 176.514 65.4844C176.368 66.0156 176.295 66.6979 176.295 67.5312C176.295 68.2604 176.384 68.8646 176.561 69.3438C176.738 69.8125 177.003 70.25 177.357 70.6562C177.722 71.0625 178.165 71.5417 178.686 72.0938L180.561 74.0781C181.55 75.1094 182.357 76.2656 182.982 77.5469C183.618 78.8177 183.936 80.2969 183.936 81.9844C183.936 83.5052 183.785 84.8125 183.482 85.9062C183.191 87 182.665 87.8438 181.904 88.4375C181.144 89.0208 180.055 89.3125 178.639 89.3125Z" fill="#EFEFEF"/>
</svg>
