<svg width="93" height="125" viewBox="0 0 93 125" fill="none" xmlns="http://www.w3.org/2000/svg">
<path d="M23.3188 112.946C19.2826 112.946 15.9243 112.016 13.2439 110.155C10.5636 108.295 8.5455 105.583 7.18957 102.02C5.86518 98.425 5.20298 94.0891 5.20298 89.0123V52.7333C5.20298 48.9178 5.51831 45.4807 6.14897 42.422C6.77964 39.3633 7.80447 36.746 9.22346 34.5702C10.6425 32.3944 12.5344 30.7232 14.8994 29.5564C17.2644 28.3897 20.1813 27.8063 23.6499 27.8063C26.8032 27.8063 29.4835 28.3266 31.6909 29.3672C33.9297 30.3763 35.7429 31.8426 37.1303 33.7661C38.5493 35.6896 39.5742 38.0231 40.2048 40.7665C40.867 43.4783 41.1981 46.5371 41.1981 49.9427V61.3892H28.9475V50.7468C28.9475 46.6474 28.6006 43.636 27.9069 41.7125C27.2132 39.7574 25.8257 38.7799 23.7445 38.7799C21.4426 38.7799 19.8975 39.8363 19.1091 41.949C18.3523 44.0302 17.9739 46.947 17.9739 50.6995V89.5799C17.9739 92.4809 18.1316 94.8617 18.4469 96.7222C18.7938 98.5511 19.3614 99.907 20.1497 100.79C20.938 101.641 22.0417 102.067 23.4607 102.067C25.605 102.067 27.0555 101.058 27.8123 99.0399C28.5691 97.0217 28.9475 93.8211 28.9475 89.438V77.5184H41.3873V89.2961C41.3873 94.5621 40.7724 98.961 39.5426 102.493C38.3128 105.993 36.3578 108.61 33.6775 110.345C31.0287 112.079 27.5758 112.946 23.3188 112.946ZM52.1244 112V28.7523H70.1456C74.3395 28.7523 77.682 29.3988 80.1732 30.6916C82.6643 31.953 84.4617 33.9711 85.5654 36.746C86.7005 39.4894 87.2681 43.0999 87.2681 47.5777V50.1319C87.2681 54.4519 86.7005 58.0152 85.5654 60.8216C84.4617 63.5965 82.6012 65.5358 79.984 66.6395C82.1598 67.3647 83.8941 68.6734 85.187 70.5654C86.5113 72.4258 87.4573 74.712 88.0249 77.4238C88.5925 80.1042 88.8763 83.0525 88.8763 86.2689V88.3974C88.8448 93.9472 88.1984 98.4723 86.937 101.972C85.6757 105.441 83.7049 107.98 81.0246 109.588C78.3442 111.196 74.8441 112 70.524 112H52.1244ZM64.8007 102.162H69.2942C70.9655 102.162 72.2899 101.799 73.2674 101.074C74.2765 100.317 75.0017 99.0714 75.4432 97.3371C75.8847 95.6027 76.1054 93.2377 76.1054 90.2421V83.5255C76.1054 79.4893 75.7112 76.5567 74.9229 74.7278C74.1661 72.8673 72.5737 71.9371 70.1456 71.9371H64.8007V102.162ZM64.8007 62.4298H69.4834C70.5871 62.4298 71.4858 62.2721 72.1795 61.9568C72.8732 61.6415 73.4093 61.1054 73.7877 60.3486C74.1661 59.5603 74.4184 58.4724 74.5445 57.0849C74.7022 55.6975 74.781 53.9316 74.781 51.7873V46.7736C74.781 44.5347 74.576 42.8319 74.1661 41.6652C73.7562 40.4985 73.1255 39.7101 72.2741 39.3002C71.4542 38.8903 70.3821 38.6853 69.0577 38.6853H64.8007V62.4298Z" fill="#EFEFEF"/>
</svg>
