<svg width="164" height="129" viewBox="0 0 164 129" fill="none" xmlns="http://www.w3.org/2000/svg">
<path d="M77.6897 63.8227C76.1398 66.4705 73.8795 69.1506 70.9088 71.8629C68.0027 74.5107 64.1602 76.7387 59.3813 78.5469C54.667 80.2906 48.8225 81.1624 41.8478 81.1624C37.1981 81.1624 32.7744 80.5812 28.5767 79.4188C24.4435 78.2563 20.7625 76.545 17.5335 74.2847C14.3691 72.0244 11.8504 69.2797 9.97761 66.0507C8.16937 62.7571 7.26525 59.0438 7.26525 54.9107C7.26525 50.713 8.20166 46.9996 10.0745 43.7706C12.0119 40.477 14.6274 37.7001 17.921 35.4398C21.2145 33.1795 24.9925 31.4681 29.2547 30.3057C33.517 29.1432 38.0053 28.562 42.7197 28.562C50.0818 28.562 56.4429 29.9505 61.8031 32.7274C67.2278 35.5044 71.6515 39.1209 75.0743 43.5769V29.6276H77.3991V47.8392L76.2367 48.0329C71.8453 41.7041 66.808 37.2803 61.125 34.7617C55.5065 32.1785 49.3714 30.8869 42.7197 30.8869C36.7137 30.8869 31.1921 31.8556 26.1549 33.793C21.1822 35.6658 17.1783 38.4105 14.143 42.027C11.1723 45.5789 9.687 49.8734 9.687 54.9107C9.687 59.8833 11.1401 64.1779 14.0462 67.7944C16.9523 71.3463 20.8271 74.0909 25.6706 76.0283C30.5786 77.9011 35.9711 78.8376 41.8478 78.8376C48.3058 78.8376 53.7951 77.998 58.3157 76.3189C62.9009 74.5753 66.6143 72.4441 69.4558 69.9255C72.2973 67.4069 74.3639 64.9529 75.6555 62.5634L77.6897 63.8227Z" fill="#EFEFEF"/>
<path d="M135.484 111.097H75.4247V108.869H93.1519V62.9525H75.4247V60.6276H134.806C139.779 60.6276 143.621 61.7577 146.334 64.018C149.111 66.2783 150.499 69.3136 150.499 73.1238C150.499 76.1591 149.595 78.7746 147.787 80.9703C146.043 83.1014 143.363 84.5222 139.746 85.2326C144.009 85.7492 147.399 87.0408 149.918 89.1074C152.436 91.1094 153.696 94.0477 153.696 97.9225C153.696 102.379 152.081 105.704 148.852 107.9C145.623 110.031 141.167 111.097 135.484 111.097ZM134.612 62.9525H95.5737V84.0701H134.225C138.293 84.0701 141.619 83.166 144.202 81.3578C146.786 79.485 148.077 76.7403 148.077 73.1238C148.077 69.5073 146.786 66.9241 144.202 65.3742C141.619 63.7597 138.423 62.9525 134.612 62.9525ZM133.74 86.4919L95.5737 86.395V108.869H134.806C139.779 108.869 143.75 108.029 146.721 106.35C149.756 104.671 151.274 101.862 151.274 97.9225C151.274 95.1456 150.467 92.9176 148.852 91.2385C147.302 89.5594 145.203 88.3647 142.556 87.6543C139.908 86.8794 136.969 86.4919 133.74 86.4919Z" fill="#EFEFEF"/>
</svg>
