<svg width="311" height="195" viewBox="0 0 311 195" fill="none" xmlns="http://www.w3.org/2000/svg">
<path d="M17.794 89.7951C14.5633 89.7951 11.9889 89.0126 10.0707 87.4478C8.15244 85.8577 6.77687 83.5356 5.94396 80.4816C5.11105 77.4276 4.69459 73.7173 4.69459 69.3509V41.5997C4.69459 38.6719 4.88389 35.9965 5.26249 33.5735C5.64108 31.1253 6.30994 29.0177 7.26905 27.2509C8.2534 25.4589 9.61635 24.0834 11.3579 23.1243C13.0994 22.1399 15.3331 21.6477 18.059 21.6477C20.6587 21.6477 22.7789 22.1147 24.4195 23.0485C26.06 23.9572 27.3347 25.2696 28.2433 26.9859C29.1519 28.677 29.7703 30.6962 30.0984 33.0435C30.4518 35.3655 30.6284 37.94 30.6284 40.7668V48.1495H22.9429V40.729C22.9429 36.5897 22.6401 33.4978 22.0343 31.4534C21.4538 29.3837 20.1287 28.3489 18.059 28.3489C15.8632 28.3489 14.3867 29.4089 13.6295 31.5291C12.8975 33.624 12.5315 36.678 12.5315 40.6911V69.5402C12.5315 72.7708 12.6704 75.3958 12.948 77.415C13.2256 79.4089 13.743 80.8602 14.5002 81.7688C15.2827 82.6774 16.3932 83.1318 17.8319 83.1318C19.9268 83.1318 21.3023 82.0717 21.9586 79.9515C22.6148 77.8314 22.9429 74.3483 22.9429 69.5023V62.1197H30.7042V69.4266C30.7042 73.8688 30.3129 77.6043 29.5305 80.633C28.7733 83.6618 27.4608 85.946 25.5931 87.4856C23.7254 89.0252 21.1257 89.7951 17.794 89.7951ZM53.3881 89V22.3671H61.2251V50.8754H71.9015V22.3671H79.7384V89H71.9015V57.2736H61.2251V89H53.3881ZM103.823 89V22.3671H111.66V89H103.823ZM148.125 89.7951C144.894 89.7951 142.32 89.0126 140.402 87.4478C138.483 85.8577 137.108 83.5356 136.275 80.4816C135.442 77.4276 135.026 73.7173 135.026 69.3509V41.5997C135.026 38.6719 135.215 35.9965 135.593 33.5735C135.972 31.1253 136.641 29.0177 137.6 27.2509C138.584 25.4589 139.947 24.0834 141.689 23.1243C143.43 22.1399 145.664 21.6477 148.39 21.6477C150.99 21.6477 153.11 22.1147 154.75 23.0485C156.391 23.9572 157.666 25.2696 158.574 26.9859C159.483 28.677 160.101 30.6962 160.429 33.0435C160.783 35.3655 160.959 37.94 160.959 40.7668V48.1495H153.274V40.729C153.274 36.5897 152.971 33.4978 152.365 31.4534C151.785 29.3837 150.46 28.3489 148.39 28.3489C146.194 28.3489 144.718 29.4089 143.96 31.5291C143.229 33.624 142.863 36.678 142.863 40.6911V69.5402C142.863 72.7708 143.001 75.3958 143.279 77.415C143.557 79.4089 144.074 80.8602 144.831 81.7688C145.614 82.6774 146.724 83.1318 148.163 83.1318C150.258 83.1318 151.633 82.0717 152.29 79.9515C152.946 77.8314 153.274 74.3483 153.274 69.5023V62.1197H161.035V69.4266C161.035 73.8688 160.644 77.6043 159.862 80.633C159.104 83.6618 157.792 85.946 155.924 87.4856C154.056 89.0252 151.457 89.7951 148.125 89.7951ZM180.16 89L190.269 22.3671H199.696L210.713 89H203.33L201.437 76.2792H189.36L187.619 89H180.16ZM190.231 69.9187H200.453L195.191 34.7093H195.077L190.231 69.9187ZM242.521 89.6436C238.66 89.6436 235.694 88.0535 233.624 84.8733C231.555 81.6931 230.52 76.4558 230.52 69.1616V41.2212C230.52 38.2933 230.722 35.6432 231.125 33.2706C231.555 30.8729 232.274 28.8032 233.283 27.0617C234.293 25.3201 235.669 23.9824 237.41 23.0485C239.177 22.1147 241.398 21.6477 244.073 21.6477C246.85 21.6477 249.058 22.1273 250.699 23.0864C252.365 24.0203 253.627 25.358 254.485 27.0995C255.343 28.8411 255.911 30.9233 256.189 33.3463C256.466 35.7694 256.605 38.4448 256.605 41.3726V46.5215H249.033V37.8516C249.033 34.621 248.705 32.2358 248.049 30.6962C247.418 29.1313 246.093 28.3489 244.073 28.3489C241.928 28.3489 240.439 29.2701 239.606 31.1126C238.773 32.9551 238.357 36.2111 238.357 40.8804V68.8965C238.357 73.995 238.697 77.6421 239.379 79.838C240.086 82.0338 241.575 83.1318 243.846 83.1318C246.017 83.1318 247.481 82.0338 248.238 79.838C249.02 77.6169 249.412 73.9192 249.412 68.7451V60.0752H243.998V54.0177H256.605V89H252.478L251.418 83.8511C250.711 85.7188 249.588 87.1575 248.049 88.1671C246.534 89.1514 244.692 89.6436 242.521 89.6436ZM292.54 89.7572C289.208 89.7572 286.571 89.0252 284.627 87.5613C282.709 86.0974 281.333 83.889 280.5 80.9359C279.693 77.9828 279.289 74.2852 279.289 69.843V40.464C279.289 36.6275 279.668 33.2959 280.425 30.469C281.182 27.6422 282.532 25.4463 284.476 23.8814C286.419 22.3166 289.17 21.5341 292.729 21.5341C295.405 21.5341 297.588 21.9885 299.279 22.8971C300.97 23.7805 302.27 25.0551 303.178 26.7209C304.112 28.3615 304.756 30.3428 305.109 32.6649C305.463 34.9869 305.639 37.5866 305.639 40.464V69.843C305.639 74.2852 305.235 77.9828 304.428 80.9359C303.645 83.889 302.295 86.0974 300.377 87.5613C298.484 89.0252 295.871 89.7572 292.54 89.7572ZM292.54 83.0182C293.978 83.0182 295.076 82.6143 295.834 81.8067C296.591 80.9738 297.108 79.5982 297.386 77.68C297.663 75.7618 297.802 73.1747 297.802 69.9187V40.0096C297.802 36.0218 297.487 33.0687 296.856 31.1505C296.225 29.2323 294.849 28.2732 292.729 28.2732C290.533 28.2732 289.044 29.2323 288.262 31.1505C287.504 33.0435 287.126 35.9839 287.126 39.9718V69.9187C287.126 73.1999 287.265 75.7996 287.542 77.7178C287.82 79.6108 288.35 80.9738 289.132 81.8067C289.915 82.6143 291.051 83.0182 292.54 83.0182Z" fill="#EFEFEF"/>
<path d="M15.7433 124.952C13.4 124.004 11.4472 122.665 9.88502 120.935C8.37861 119.206 7.15116 117.169 6.20268 114.826C6.76061 113.32 7.6533 112.064 8.88075 111.06C10.1082 110 11.4751 109.107 12.9815 108.382C14.5438 107.657 16.1896 107.071 17.9192 106.624C19.6488 106.178 21.3226 105.787 22.9406 105.453C23.2754 105.564 23.4428 105.564 23.4428 105.453C23.4428 105.341 23.5822 105.397 23.8612 105.62C25.8698 105.006 28.1852 104.421 30.8075 103.863C33.4297 103.249 36.2194 103.026 39.1764 103.193C39.567 102.97 40.0412 102.858 40.5991 102.858C41.1571 102.803 41.7429 102.775 42.3566 102.775C42.9704 102.775 43.5562 102.775 44.1141 102.775C44.672 102.719 45.1463 102.607 45.5368 102.44C45.8716 102.83 46.3737 103.081 47.0433 103.193C47.7128 103.249 48.4102 103.528 49.1355 104.03C49.3587 104.086 49.3587 104.002 49.1355 103.779C48.9123 103.5 48.9402 103.305 49.2192 103.193C49.9445 103.193 50.5861 103.36 51.144 103.695C51.702 104.03 52.2041 104.421 52.6505 104.867C53.1526 105.257 53.5989 105.62 53.9895 105.955C54.4358 106.29 54.9101 106.457 55.4122 106.457C55.9144 107.071 56.5002 107.657 57.1697 108.214C57.895 108.717 58.5645 109.247 59.1783 109.805C59.8478 110.362 60.3778 110.976 60.7684 111.646C61.2147 112.315 61.4379 113.068 61.4379 113.905C61.3821 114.24 61.4937 114.435 61.7726 114.491C62.0516 114.547 62.2469 114.714 62.3585 114.993C62.4143 117.058 62.0795 118.843 61.3542 120.349C60.6847 121.856 59.8199 123.251 58.7598 124.534C57.6997 125.761 56.556 126.933 55.3285 128.049C54.1569 129.165 53.0689 130.364 52.0646 131.648C52.7342 132.484 53.4874 133.266 54.3243 133.991C55.2169 134.66 56.1096 135.33 57.0023 135.999C57.895 136.669 58.7319 137.394 59.513 138.175C60.3499 138.901 61.0473 139.738 61.6053 140.686C61.7726 141.021 62.1353 141.244 62.6932 141.356C62.8606 142.025 63.0838 142.722 63.3627 143.448C63.6975 144.117 64.0044 144.787 64.2833 145.456C64.5623 146.07 64.7297 146.628 64.7855 147.13C64.8413 147.632 64.7018 148.051 64.367 148.386C64.7576 148.609 64.9807 148.971 65.0365 149.473C65.0923 149.92 65.0923 150.282 65.0365 150.561C63.8091 152.068 62.9722 153.128 62.5258 153.742C62.0795 154.355 61.7447 154.802 61.5216 155.081C61.2984 155.36 61.0752 155.611 60.8521 155.834C60.6289 156.057 60.1267 156.503 59.3456 157.173C56.3886 158.958 53.2921 160.576 50.0561 162.027C46.8759 163.422 43.5562 164.37 40.097 164.872C39.818 165.263 39.3996 165.57 38.8417 165.793C38.3395 166.072 37.7537 166.295 37.0842 166.462C36.4147 166.63 35.6893 166.769 34.9082 166.881C34.1829 166.993 33.5134 167.104 32.8997 167.216C32.6207 167.104 32.4533 166.909 32.3976 166.63C32.3976 166.407 32.2581 166.239 31.9791 166.128C31.9233 166.797 31.6165 167.132 31.0585 167.132C30.5564 167.188 29.9148 167.076 29.1337 166.797C28.3526 166.518 27.5436 166.128 26.7067 165.626C25.8698 165.123 25.1444 164.649 24.5307 164.203C24.2518 164.705 23.8891 165.235 23.4428 165.793C23.0522 166.351 22.6338 166.741 22.1874 166.965C21.4063 166.853 20.8205 166.769 20.4299 166.714C20.0952 166.658 19.7604 166.797 19.4257 167.132C18.9793 166.909 18.6445 166.658 18.4214 166.379C18.1982 166.156 17.975 165.905 17.7519 165.626C17.5287 165.402 17.2776 165.207 16.9986 165.04C16.7197 164.817 16.3012 164.621 15.7433 164.454C15.8549 164.175 15.7712 163.757 15.4922 163.199C15.2133 162.585 14.8227 162.222 14.3206 162.111C14.5995 161.664 14.488 161.106 13.9858 160.437C13.4837 159.712 13.0931 158.903 12.8142 158.01C12.87 157.619 12.8979 157.229 12.8979 156.838C12.9536 156.392 13.0094 156.001 13.0652 155.667C13.1768 155.276 13.3163 154.941 13.4837 154.662C13.6511 154.383 13.93 154.188 14.3206 154.076C14.2648 153.351 14.0416 152.654 13.6511 151.984C14.1532 151.594 14.488 151.119 14.6553 150.561C14.8227 149.948 14.9622 149.334 15.0738 148.72C15.2412 148.107 15.4364 147.521 15.6596 146.963C15.8828 146.349 16.2454 145.847 16.7476 145.456C16.636 145.289 16.5244 145.149 16.4128 145.038C16.3012 144.926 16.2454 144.731 16.2454 144.452C17.0823 143.057 17.6682 141.886 18.0029 140.937C18.3377 139.933 18.5888 138.984 18.7561 138.092C18.9793 137.143 19.2025 136.139 19.4257 135.079C19.6488 134.019 20.0952 132.68 20.7647 131.062C20.7089 130.057 20.8205 129.165 21.0994 128.384C21.3784 127.603 21.6574 126.849 21.9363 126.124C22.2711 125.343 22.5222 124.534 22.6895 123.697C22.8569 122.86 22.829 121.884 22.6059 120.768C21.6574 120.879 20.96 121.214 20.5136 121.772C20.1231 122.33 19.872 123.083 19.7604 124.032C19.2583 124.478 18.6167 124.701 17.8355 124.701C17.0544 124.646 16.357 124.729 15.7433 124.952ZM52.5668 141.104C50.4466 139.933 48.4939 139.235 46.7085 139.012C44.9789 138.789 43.3051 138.817 41.6871 139.096C40.1249 139.319 38.6185 139.654 37.1679 140.1C35.7172 140.547 34.2666 140.881 32.816 141.104C32.0907 143.001 31.3375 145.094 30.5564 147.381C29.7753 149.669 29.0221 151.9 28.2968 154.076C30.3053 153.797 32.1465 153.379 33.8203 152.821C35.4941 152.263 37.1121 151.649 38.6743 150.98C40.2365 150.255 41.7708 149.557 43.2772 148.888C44.7836 148.162 46.3458 147.493 47.9638 146.879C48.1312 146.21 48.4939 145.68 49.0518 145.289C49.6097 144.898 50.1677 144.536 50.7256 144.201C51.2835 143.81 51.7578 143.392 52.1483 142.946C52.5389 142.499 52.6784 141.886 52.5668 141.104ZM46.7085 114.91C43.2493 114.798 39.8459 115.105 36.4984 115.83C33.1508 116.556 30.3332 117.616 28.0457 119.01C29.1616 119.959 30.3053 120.796 31.477 121.521C32.7044 122.246 33.625 123.223 34.2387 124.45C36.9168 123.39 39.2601 122.051 41.2687 120.433C43.2772 118.759 45.0905 116.918 46.7085 114.91ZM74.0315 162.529C73.5852 162.083 73.2504 161.553 73.0272 160.939C72.8599 160.325 72.4135 159.823 71.6882 159.433C71.5766 158.596 71.4092 157.647 71.1861 156.587C71.0187 155.471 70.8234 154.355 70.6002 153.24C70.4329 152.068 70.2934 150.924 70.1818 149.808C70.126 148.637 70.1818 147.577 70.3492 146.628C70.4607 146.126 70.6281 145.652 70.8513 145.205C71.1303 144.759 71.3813 144.34 71.6045 143.95C71.8835 143.504 72.0788 143.057 72.1903 142.611C72.3577 142.165 72.3856 141.718 72.274 141.272C72.6088 141.216 72.8041 141.049 72.8599 140.77C72.9714 140.435 73.2504 140.323 73.6968 140.435C74.0873 139.208 74.5058 138.064 74.9521 137.004C75.3984 135.944 75.8727 134.911 76.3748 133.907C76.877 132.903 77.3791 131.899 77.8812 130.894C78.4392 129.834 78.9413 128.663 79.3877 127.379C78.4392 126.487 77.7418 125.538 77.2954 124.534C76.9049 123.474 76.598 122.414 76.3748 121.354C76.1516 120.294 75.9843 119.234 75.8727 118.174C75.7611 117.058 75.5379 115.942 75.2032 114.826C75.8727 113.822 76.6817 113.013 77.6302 112.399C78.5787 111.729 79.6108 111.199 80.7267 110.809C81.8983 110.362 83.1537 110.028 84.4927 109.805C85.8318 109.526 87.2545 109.219 88.7609 108.884C91.439 108.047 93.8381 107.405 95.9582 106.959C98.0784 106.457 100.143 106.066 102.151 105.787C104.16 105.453 106.252 105.174 108.428 104.951C110.604 104.672 113.115 104.281 115.96 103.779C116.016 103.946 116.1 104.03 116.211 104.03C116.379 104.03 116.574 104.03 116.797 104.03C116.964 104.421 117.271 104.616 117.718 104.616C117.718 104.448 117.69 104.309 117.634 104.197C117.634 104.03 117.634 103.89 117.634 103.779C117.745 103.779 117.885 103.807 118.052 103.863C118.275 103.918 118.443 103.974 118.554 104.03C118.722 104.086 118.861 104.086 118.973 104.03C119.084 103.918 119.112 103.723 119.057 103.444C119.726 104.616 120.591 105.592 121.651 106.373C122.711 107.099 123.883 107.74 125.166 108.298C125.222 108.8 125.222 109.163 125.166 109.386C125.166 109.609 125.138 109.832 125.082 110.056C125.026 110.223 124.999 110.446 124.999 110.725C124.999 110.948 125.054 111.283 125.166 111.729C124.273 113.236 123.241 114.407 122.069 115.244C120.954 116.081 119.754 116.723 118.471 117.169C117.188 117.616 115.821 117.95 114.37 118.174C112.975 118.397 111.524 118.648 110.018 118.927C108.567 119.15 107.089 119.485 105.583 119.931C104.076 120.377 102.598 121.047 101.147 121.94C100.701 121.772 100.282 121.716 99.8916 121.772C99.5569 121.772 99.1942 121.828 98.8037 121.94C98.4131 122.051 97.9668 122.163 97.4646 122.274C97.0183 122.386 96.4604 122.386 95.7908 122.274C95.3445 122.665 94.8145 122.944 94.2007 123.111C93.6428 123.279 93.057 123.446 92.4432 123.613C92.7222 124.227 92.8338 124.841 92.778 125.455C92.778 126.068 92.8617 126.598 93.0291 127.045C95.3724 127.268 97.9668 127.268 100.812 127.045C103.658 126.766 106.447 126.57 109.181 126.459C109.237 126.738 109.209 126.933 109.097 127.045C108.986 127.156 108.93 127.351 108.93 127.63C109.432 127.965 109.906 128.384 110.353 128.886C110.799 129.388 111.246 129.89 111.692 130.392C112.194 130.839 112.696 131.229 113.198 131.564C113.7 131.843 114.286 131.954 114.956 131.899C115.235 132.457 115.43 133.042 115.542 133.656C115.653 134.27 115.57 134.911 115.291 135.581C114.175 136.306 113.087 137.059 112.027 137.841C110.967 138.566 109.851 139.235 108.679 139.849C107.563 140.463 106.336 140.965 104.997 141.356C103.658 141.746 102.207 141.913 100.645 141.858C100.366 141.858 100.115 141.858 99.8916 141.858C99.7242 141.858 99.5011 141.746 99.2221 141.523C98.6642 141.802 97.911 141.913 96.9625 141.858C96.0698 141.746 95.3166 141.83 94.7029 142.109C93.9218 141.83 93.0012 141.69 91.9411 141.69C90.9368 141.69 90.0441 141.551 89.263 141.272C88.2588 142.722 87.3103 144.257 86.4176 145.875C85.5249 147.437 84.7438 149.111 84.0743 150.896C86.3618 151.231 88.2588 151.37 89.7652 151.315C91.2716 151.259 92.6943 151.147 94.0333 150.98C95.3724 150.813 96.7393 150.645 98.1341 150.478C99.5848 150.31 101.342 150.255 103.407 150.31C104.801 149.641 106.392 149.195 108.177 148.971C110.018 148.692 111.72 148.302 113.282 147.8C113.84 147.967 114.314 148.302 114.705 148.804C115.095 149.25 115.458 149.725 115.793 150.227C116.183 150.673 116.574 151.064 116.964 151.398C117.355 151.733 117.857 151.845 118.471 151.733C118.75 152.012 118.917 152.347 118.973 152.737C119.084 153.128 119.168 153.491 119.224 153.825C119.336 154.16 119.475 154.439 119.642 154.662C119.81 154.83 120.117 154.885 120.563 154.83C119.503 157.006 118.303 158.679 116.964 159.851C115.681 161.023 114.203 161.943 112.529 162.613C110.911 163.226 109.07 163.701 107.005 164.035C104.997 164.314 102.737 164.677 100.226 165.123C99.6127 165.235 99.0826 165.235 98.6363 165.123C98.2457 164.956 97.8273 164.872 97.3809 164.872C95.8187 165.151 93.9497 165.43 91.7737 165.709C89.6536 165.988 87.5056 166.1 85.3296 166.044C83.1537 165.988 81.0614 165.709 79.0529 165.207C77.0443 164.705 75.3705 163.812 74.0315 162.529ZM122.612 157.424L123.7 156.587L123.783 154.83C125.178 151.426 126.601 148.162 128.052 145.038C129.558 141.913 131.12 138.705 132.738 135.414C133.24 134.354 133.742 133.293 134.245 132.233C134.803 131.173 135.333 130.085 135.835 128.969C135.779 128.746 135.751 128.523 135.751 128.3C135.751 128.021 135.807 127.714 135.918 127.379C136.699 126.264 137.313 125.259 137.76 124.367C138.262 123.474 138.736 122.553 139.182 121.605C139.684 120.489 140.214 119.373 140.772 118.257C141.386 117.141 142.139 116.053 143.032 114.993L143.618 114.156L144.538 114.24C144.762 114.129 144.985 114.045 145.208 113.989C145.487 113.877 145.822 113.822 146.212 113.822L147.719 114.073C149.56 113.236 151.178 112.036 152.573 110.474C154.023 108.856 155.474 106.931 156.924 104.699L157.929 103.277L159.268 104.114C159.547 104.281 159.993 104.448 160.607 104.616C161.221 104.783 161.862 104.978 162.532 105.202C163.703 105.481 164.847 105.815 165.963 106.206C167.079 106.541 167.944 107.015 168.557 107.629L168.976 108.382C169.087 108.996 169.171 109.553 169.227 110.056C169.338 110.558 169.45 111.06 169.562 111.562C169.785 112.734 169.98 113.905 170.147 115.077C170.315 116.193 170.426 117.448 170.482 118.843C170.761 119.959 171.012 121.103 171.235 122.274C171.514 123.39 171.765 124.506 171.989 125.622C172.268 127.24 172.574 128.802 172.909 130.309C173.244 131.759 173.69 133.154 174.248 134.493C174.806 134.493 175.141 134.521 175.253 134.577C175.922 134.298 176.703 134.13 177.596 134.075L178.684 133.991L179.019 134.995C179.13 135.163 179.27 135.33 179.437 135.497C179.604 135.665 179.8 135.832 180.023 135.999C180.916 136.055 181.557 136.25 181.948 136.585C182.394 136.864 182.757 137.143 183.036 137.422C183.147 137.534 183.287 137.673 183.454 137.841C183.622 137.952 183.761 138.036 183.873 138.092L185.379 138.677L184.542 140.268C183.928 141.439 182.98 142.583 181.697 143.699C180.469 144.815 179.074 145.735 177.512 146.461C177.624 146.851 177.68 147.214 177.68 147.549C177.735 147.883 177.819 148.274 177.931 148.72C178.154 149.836 178.321 151.008 178.433 152.235C178.6 153.407 178.6 154.634 178.433 155.918C177.875 157.368 177.205 158.679 176.424 159.851C175.699 160.967 174.806 161.999 173.746 162.948C172.742 163.84 171.598 164.593 170.315 165.207C169.032 165.765 167.693 166.072 166.298 166.128C165.517 165.96 164.931 165.765 164.54 165.542C164.205 165.319 163.899 165.096 163.62 164.872C163.173 164.538 162.811 164.314 162.532 164.203L161.444 163.701L161.778 162.445C161.946 161.999 161.918 161.608 161.695 161.274C161.527 160.939 161.137 160.493 160.523 159.935C160.3 159.767 160.105 159.6 159.937 159.433C159.77 159.209 159.575 158.986 159.351 158.763L157.678 156.838L160.439 156.085C162.113 155.639 163.229 155.081 163.787 154.411C164.345 153.686 164.568 152.431 164.457 150.645C163.062 150.366 161.918 150.338 161.025 150.561C160.133 150.729 159.24 150.924 158.347 151.147C157.064 151.482 155.809 151.789 154.581 152.068C153.354 152.291 152.015 152.403 150.564 152.403C149.616 152.403 148.611 152.319 147.551 152.152L146.631 152.068L146.38 151.147C146.38 151.036 146.296 150.924 146.129 150.813C146.017 150.645 145.905 150.506 145.794 150.394C145.515 150.059 145.18 149.613 144.789 149.055C144.399 148.497 144.315 147.8 144.538 146.963C144.148 146.349 143.925 145.707 143.869 145.038C143.646 145.484 143.45 145.931 143.283 146.377C143.171 146.768 143.06 147.158 142.948 147.549L142.614 148.637L141.526 148.804C141.414 148.916 141.302 149.083 141.191 149.306C141.135 149.529 141.135 149.697 141.191 149.808L141.526 150.729L140.689 151.482C140.577 151.649 140.438 151.789 140.27 151.9C140.103 152.012 139.963 152.124 139.852 152.235C139.74 152.849 139.573 153.435 139.35 153.993C139.182 154.551 138.987 155.109 138.764 155.667C138.485 156.559 138.206 157.424 137.927 158.261C137.704 159.098 137.592 159.935 137.592 160.772L137.257 161.86C136.978 162.306 136.616 162.641 136.169 162.864C135.779 163.087 135.388 163.282 134.998 163.45C134.44 163.673 134.049 163.896 133.826 164.119L133.575 165.207L132.32 165.375C131.594 165.542 131.064 165.653 130.73 165.709C130.451 165.765 130.116 165.793 129.725 165.793L128.637 165.709C127.968 165.04 127.41 164.538 126.964 164.203C126.573 163.812 126.099 163.478 125.541 163.199L125.039 162.529C124.816 162.083 124.676 161.692 124.62 161.357C124.564 160.967 124.481 160.576 124.369 160.186C124.258 159.46 124.09 158.958 123.867 158.679L122.612 157.424ZM149.309 135.665C148.528 136.781 147.774 137.952 147.049 139.18C147.44 139.124 147.802 139.096 148.137 139.096C148.528 139.096 148.918 139.068 149.309 139.012C151.261 138.901 153.075 138.761 154.749 138.594C156.422 138.426 158.236 138.147 160.188 137.757C159.742 135.693 159.24 133.6 158.682 131.48C158.18 129.304 157.622 127.128 157.008 124.952L156.59 125.789C155.195 127.296 153.856 128.914 152.573 130.643C151.289 132.373 150.229 134.019 149.392 135.581L149.309 135.665ZM189.018 158.177C188.739 158.233 188.488 158.038 188.265 157.591C188.041 157.089 187.79 156.615 187.511 156.169H188.432C188.041 154.941 187.93 153.825 188.097 152.821C188.32 151.761 188.571 150.757 188.85 149.808C189.129 148.804 189.353 147.855 189.52 146.963C189.743 146.014 189.659 145.038 189.269 144.034C189.548 144.201 189.743 144.145 189.855 143.866C190.022 143.531 190.134 143.141 190.189 142.695C190.301 142.192 190.329 141.69 190.273 141.188C190.273 140.63 190.245 140.184 190.189 139.849C190.915 138.12 191.473 136.334 191.863 134.493C192.31 132.652 192.7 130.839 193.035 129.053C193.37 127.212 193.732 125.455 194.123 123.781C194.569 122.051 195.127 120.433 195.797 118.927C196.578 118.815 197.387 118.927 198.224 119.261C199.116 119.54 199.702 119.903 199.981 120.349C201.711 119.01 203.245 117.392 204.584 115.495C205.923 113.598 207.262 111.757 208.601 109.972C209.996 108.131 211.558 106.513 213.288 105.118C215.017 103.723 217.165 102.886 219.732 102.607C221.071 103.556 222.577 104.588 224.251 105.704C225.925 106.764 227.292 108.103 228.352 109.721C228.798 110 229.217 110.307 229.607 110.641C230.054 110.92 230.5 111.199 230.946 111.478V112.734C231.727 113.459 232.369 114.324 232.871 115.328C233.429 116.277 233.903 117.309 234.294 118.425C234.74 119.485 235.159 120.573 235.549 121.688C235.94 122.804 236.386 123.837 236.888 124.785C236.777 125.12 236.721 125.427 236.721 125.706C236.777 125.929 236.833 126.18 236.888 126.459C237 126.682 237.084 126.961 237.139 127.296C237.195 127.575 237.223 127.937 237.223 128.384C237 131.341 236.024 133.74 234.294 135.581C232.62 137.366 230.556 138.845 228.101 140.017C225.702 141.132 223.135 142.109 220.401 142.946C217.668 143.727 215.185 144.592 212.953 145.54C212.953 145.763 213.065 145.875 213.288 145.875C213.567 145.875 213.65 146.042 213.539 146.377C215.213 147.381 216.496 148.19 217.389 148.804C218.337 149.418 219.202 149.948 219.983 150.394C220.82 150.785 221.713 151.119 222.661 151.398C223.665 151.677 225.032 152.012 226.762 152.403C228.491 152.793 229.83 153.128 230.779 153.407C231.783 153.63 232.676 153.825 233.457 153.993C234.238 154.104 235.075 154.216 235.968 154.327C236.86 154.439 238.06 154.579 239.566 154.746C240.18 155.36 240.682 156.085 241.073 156.922C241.463 157.759 241.742 158.596 241.91 159.433C242.077 160.269 242.105 161.078 241.993 161.86C241.938 162.585 241.714 163.171 241.324 163.617C241.38 163.84 241.519 163.952 241.742 163.952C242.021 163.896 242.3 163.896 242.579 163.952C242.189 164.231 241.854 164.566 241.575 164.956C241.296 165.347 241.017 165.737 240.738 166.128C240.459 166.518 240.124 166.881 239.734 167.216C239.399 167.55 238.953 167.746 238.395 167.802C236.386 168.583 233.82 168.611 230.695 167.885C227.571 167.16 223.582 165.877 218.728 164.035C216.329 163.143 214.376 162.334 212.869 161.608C211.363 160.883 210.052 160.186 208.936 159.516C207.82 158.791 206.788 158.038 205.839 157.257C204.891 156.42 203.803 155.443 202.576 154.327C202.408 154.383 202.297 154.495 202.241 154.662C202.241 154.83 202.157 154.941 201.99 154.997C201.711 157.229 201.264 159.042 200.651 160.437C200.093 161.832 199.256 163.254 198.14 164.705C197.247 164.538 196.634 164.621 196.299 164.956C196.02 165.291 195.657 165.598 195.211 165.877C194.653 165.988 194.234 165.96 193.956 165.793C193.677 165.681 193.425 165.542 193.202 165.375C192.979 165.207 192.728 165.04 192.449 164.872C192.17 164.705 191.724 164.649 191.11 164.705C190.943 164.203 190.775 163.729 190.608 163.282C190.441 162.78 189.994 162.557 189.269 162.613C189.436 162.111 189.492 161.692 189.436 161.357C189.38 160.967 189.297 160.632 189.185 160.353C189.074 160.018 188.962 159.684 188.85 159.349C188.795 159.014 188.85 158.624 189.018 158.177ZM216.97 119.931C216.245 120.991 215.436 121.967 214.543 122.86C213.65 123.697 212.758 124.59 211.865 125.538C211.028 126.431 210.275 127.435 209.605 128.551C208.936 129.611 208.462 130.894 208.183 132.401C210.526 132.122 212.981 131.48 215.547 130.476C218.114 129.416 220.541 128.412 222.828 127.463C222.549 125.399 221.824 123.753 220.653 122.525C219.481 121.242 218.253 120.377 216.97 119.931ZM244.879 127.63C245.046 126.794 245.158 126.124 245.214 125.622C245.27 125.064 245.074 124.478 244.628 123.864C244.851 122.972 245.018 122.274 245.13 121.772C245.297 121.27 245.325 120.573 245.214 119.68C245.716 118.229 246.469 117.002 247.473 115.998C248.533 114.993 249.677 114.156 250.905 113.487C252.132 112.762 253.415 112.176 254.754 111.729C256.093 111.227 257.349 110.809 258.52 110.474C258.52 110.251 258.409 110.139 258.186 110.139C257.963 110.139 257.907 110 258.018 109.721C261.031 109.163 264.044 108.354 267.057 107.294C270.125 106.234 273.25 105.285 276.43 104.448C279.61 103.612 282.874 103.109 286.222 102.942C289.569 102.719 293.084 103.137 296.767 104.197C296.99 104.867 297.297 105.508 297.687 106.122C298.078 106.736 298.468 107.35 298.859 107.963C299.305 108.521 299.696 109.079 300.031 109.637C300.365 110.195 300.561 110.781 300.616 111.395C301.286 112.008 301.816 112.678 302.206 113.403C302.653 114.073 302.736 114.993 302.458 116.165C301.844 116.611 301.202 117.058 300.533 117.504C299.863 117.95 299.166 118.369 298.44 118.759C295.93 118.146 293.419 117.922 290.908 118.09C288.398 118.257 286.138 118.452 284.129 118.676C283.516 118.006 282.79 117.699 281.954 117.755C281.117 117.755 280.224 117.895 279.275 118.174C278.383 118.397 277.49 118.648 276.597 118.927C275.705 119.15 274.868 119.206 274.087 119.094C273.473 119.652 272.664 120.043 271.66 120.266C270.655 120.433 269.595 120.573 268.48 120.684C268.424 120.963 268.48 121.158 268.647 121.27C268.814 121.382 268.842 121.605 268.731 121.94C269.121 122.442 269.651 122.804 270.321 123.028C270.99 123.195 271.66 123.362 272.329 123.53C273.055 123.697 273.696 123.948 274.254 124.283C274.812 124.562 275.175 125.036 275.342 125.706C276.346 125.761 277.211 126.04 277.936 126.542C278.662 126.989 279.275 127.547 279.778 128.216C280.28 128.886 280.642 129.611 280.866 130.392C281.089 131.118 281.172 131.787 281.117 132.401C281.34 132.959 281.563 133.182 281.786 133.07C282.065 132.959 282.372 133.098 282.707 133.489C282.93 134.326 283.432 135.218 284.213 136.167C285.05 137.059 285.692 138.036 286.138 139.096C286.25 140.77 286.333 142.276 286.389 143.615C286.501 144.954 286.278 146.265 285.72 147.549C284.771 150.004 283.404 152.207 281.619 154.16C279.833 156.113 277.797 157.842 275.509 159.349C273.278 160.799 270.907 162.083 268.396 163.199C265.885 164.259 263.402 165.151 260.947 165.877C260.724 165.821 260.445 165.821 260.111 165.877C259.832 165.932 259.776 165.765 259.943 165.375C259.441 165.821 258.855 166.1 258.186 166.211C257.572 166.323 256.875 166.351 256.093 166.295C255.368 166.295 254.615 166.267 253.834 166.211C253.108 166.156 252.383 166.184 251.658 166.295C251.212 165.849 250.793 165.402 250.403 164.956C250.068 164.51 249.789 163.98 249.566 163.366C249.287 163.31 249.147 163.143 249.147 162.864C249.203 162.529 249.091 162.362 248.812 162.362C248.812 162.139 248.84 161.971 248.896 161.86C248.952 161.748 249.008 161.636 249.063 161.525C249.287 161.357 249.37 161.246 249.315 161.19C249.315 161.078 249.231 160.995 249.063 160.939C248.952 160.827 248.812 160.716 248.645 160.604C248.533 160.493 248.506 160.353 248.561 160.186C248.84 159.684 248.924 159.098 248.812 158.428C248.757 157.703 248.701 156.978 248.645 156.252C248.589 155.527 248.645 154.858 248.812 154.244C248.98 153.574 249.454 153.016 250.235 152.57C252.523 152.793 254.671 152.682 256.679 152.235C258.744 151.789 260.668 151.175 262.454 150.394C264.295 149.613 266.025 148.776 267.643 147.883C269.316 146.935 270.934 146.07 272.497 145.289C272.664 144.731 272.915 144.257 273.25 143.866C273.64 143.476 274.031 143.113 274.421 142.778C274.812 142.388 275.175 141.997 275.509 141.607C275.844 141.16 276.095 140.63 276.263 140.017C276.318 139.793 276.318 139.626 276.263 139.514C276.207 139.403 276.123 139.319 276.012 139.263C275.9 139.152 275.788 139.04 275.677 138.929C275.565 138.817 275.509 138.65 275.509 138.426C275.342 138.371 275.175 138.315 275.007 138.259C274.896 138.203 274.784 138.175 274.673 138.175C273.222 137.45 271.688 136.836 270.07 136.334C268.452 135.832 267.085 135.274 265.969 134.66C265.299 135.107 264.63 135.218 263.96 134.995C263.291 134.772 262.482 134.549 261.533 134.326C259.19 134.214 256.958 133.991 254.838 133.656C252.774 133.321 250.765 132.736 248.812 131.899C248.701 131.564 248.561 131.285 248.394 131.062C248.227 130.783 247.836 130.699 247.222 130.811C246.832 130.253 246.413 129.751 245.967 129.304C245.576 128.802 245.214 128.244 244.879 127.63Z" fill="#EFEFEF"/>
</svg>
