<svg width="118" height="143" viewBox="0 0 118 143" fill="none" xmlns="http://www.w3.org/2000/svg">
<path d="M39.9104 94.1624C19.9552 94.1624 5.13411 78.7601 5.13411 59.2892V59.0955C5.13411 39.8184 19.6646 24.0286 40.4917 24.0286C53.1816 24.0286 61.0281 28.2908 67.2278 34.4905L57.7345 45.4368C52.4067 40.6902 47.2726 37.7841 40.3948 37.7841C28.9641 37.7841 20.7302 47.2774 20.7302 58.9018V59.0955C20.7302 70.7199 28.7704 80.4069 40.3948 80.4069C48.1444 80.4069 52.891 77.4039 58.2189 72.4636L67.7121 82.0537C60.7375 89.5127 53.0848 94.1624 39.9104 94.1624Z" fill="#EFEFEF"/>
<path d="M56.1371 120V52.191H87.6198C95.4663 52.191 101.375 54.2253 105.347 58.1969C108.447 61.2968 109.997 65.1716 109.997 69.7245V69.9182C109.997 77.4741 105.928 82.027 101.085 84.5456C108.931 87.5485 113.775 92.1983 113.775 101.207V101.401C113.775 113.8 103.7 120 88.3948 120H56.1371ZM95.1757 72.4368V72.2431C95.1757 67.6902 91.6884 65.2684 85.3918 65.2684H70.6676V79.6052H84.4231C91.0103 79.6052 95.1757 77.4741 95.1757 72.4368ZM98.9536 99.5604V99.3667C98.9536 94.8138 95.66 92.0046 87.9104 92.0046H70.6676V106.923H88.3948C94.982 106.923 98.9536 104.598 98.9536 99.5604Z" fill="#EFEFEF"/>
</svg>
