<svg width="467" height="110" viewBox="0 0 467 110" fill="none" xmlns="http://www.w3.org/2000/svg">
<path d="M3.87858 22.0101H54.0637C55.9241 22.0101 57.7846 22.0889 59.6451 22.2466C61.5055 22.4042 63.2871 22.7038 64.9899 23.1453C66.7243 23.5552 68.3167 24.1386 69.7672 24.8954C71.2493 25.6522 72.5264 26.6454 73.5985 27.8752C74.7022 29.105 75.5536 30.5871 76.1527 32.3214C76.7834 34.0558 77.0987 36.1054 77.0987 38.4704C77.0987 40.5831 76.8307 42.412 76.2946 43.9572C75.7901 45.5023 75.0017 46.8267 73.9296 47.9304C72.889 49.034 71.5488 49.9485 69.9091 50.6737C68.2694 51.3675 66.3459 51.9193 64.1385 52.3292C67.2919 52.55 69.9879 53.086 72.2268 53.9374C74.4972 54.7888 76.3419 55.924 77.7609 57.343C79.1799 58.762 80.2205 60.4648 80.8827 62.4514C81.5449 64.4065 81.876 66.6138 81.876 69.0734C81.876 71.596 81.5449 73.7876 80.8827 75.648C80.2205 77.5085 79.2902 79.1167 78.092 80.4726C76.9253 81.797 75.5063 82.8849 73.835 83.7363C72.1953 84.5562 70.3663 85.2184 68.3482 85.7229C66.3616 86.1959 64.2331 86.527 61.9627 86.7162C59.6924 86.9054 57.3431 87 54.9151 87H3.87858V81.6551H17.4536V27.3076H3.87858V22.0101ZM75.6324 68.9788C75.6324 66.5192 75.2067 64.4222 74.3553 62.6879C73.5039 60.9536 72.1953 59.5346 70.4294 58.4309C68.6636 57.3273 66.3932 56.5232 63.6182 56.0186C60.8749 55.4826 57.5954 55.2145 53.7799 55.2145H23.3661V81.6551H54.5367C58.4783 81.6551 61.7893 81.4344 64.4696 80.9929C67.1815 80.5199 69.3573 79.7789 70.997 78.7698C72.6683 77.7292 73.8508 76.4048 74.5445 74.7967C75.2698 73.1885 75.6324 71.2492 75.6324 68.9788ZM71.5646 38.565C71.5646 37.6505 71.5015 36.7361 71.3754 35.8216C71.2493 34.9071 70.9655 34.04 70.524 33.2201C70.0825 32.3687 69.4361 31.5804 68.5847 30.8551C67.7649 30.1299 66.6297 29.515 65.1791 29.0104C63.7286 28.4744 61.9312 28.0644 59.787 27.7806C57.6742 27.4653 55.12 27.3076 52.1244 27.3076H23.3661V50.0116H52.1244C56.3814 50.0116 59.787 49.712 62.3411 49.1129C64.8953 48.4822 66.8504 47.6466 68.2063 46.606C69.5938 45.5654 70.4925 44.3513 70.9024 42.9639C71.3439 41.5764 71.5646 40.1101 71.5646 38.565ZM167.576 41.4503V27.5441H120.702V49.917H156.791V55.4037H120.702V81.4659H168.238V66.5665H173.583V87H101.214V81.6551H114.789V27.3076H101.214V22.0101H172.873V41.4503H167.576ZM209.145 22.0101H236.862L268.08 81.6551H280.567V87H247.505V81.6551H261.553L252.944 64.911H213.827L205.077 81.6551H219.219V87H186.204V81.6551H198.691L227.071 27.3076H209.145V22.0101ZM233.362 27.7333L216.713 59.5661H250.059L233.362 27.7333ZM348.624 81.6551H358.699L341.718 58.9985C340.867 59.0616 339.984 59.1089 339.07 59.1404C338.155 59.1719 337.209 59.1877 336.232 59.1877H309.791V81.6551H323.319V87H290.304V81.6551H303.879V27.3076H290.304V22.0101H336.232C341.182 22.0101 345.424 22.4042 348.955 23.1926C352.487 23.9494 355.372 25.1161 357.611 26.6927C359.85 28.2379 361.49 30.1772 362.53 32.5106C363.571 34.8441 364.091 37.5717 364.091 40.6935C364.091 45.5496 362.814 49.444 360.26 52.3765C357.706 55.2776 353.591 57.2642 347.915 58.3363L365.936 81.6551H379.7V87H348.624V81.6551ZM357.611 40.6935C357.611 37.9186 357.138 35.6797 356.192 33.9769C355.278 32.2426 353.733 30.9024 351.557 29.9564C349.413 29.0104 346.575 28.3798 343.043 28.0644C339.511 27.7176 335.144 27.5441 329.941 27.5441H309.791V53.6536H329.704C334.907 53.6536 339.275 53.5117 342.806 53.2279C346.37 52.9126 349.239 52.2977 351.415 51.3832C353.622 50.4372 355.199 49.1286 356.145 47.4574C357.122 45.7546 357.611 43.4999 357.611 40.6935ZM393.268 87V63.6339H398.612V70.3505C398.612 72.2109 399.07 73.8191 399.984 75.175C400.93 76.4994 402.176 77.6346 403.721 78.5806C405.266 79.4951 407.032 80.2361 409.018 80.8037C411.037 81.3713 413.134 81.8128 415.309 82.1281C417.485 82.4435 419.645 82.6642 421.789 82.7903C423.965 82.8849 425.983 82.9322 427.844 82.9322C431.565 82.9322 435.033 82.7273 438.25 82.3173C441.466 81.9074 444.257 81.2294 446.622 80.2834C449.018 79.3374 450.895 78.1076 452.25 76.594C453.606 75.0489 454.284 73.1569 454.284 70.9181C454.284 68.963 453.717 67.2917 452.582 65.9043C451.478 64.4853 449.949 63.2713 447.993 62.2622C446.07 61.2216 443.815 60.3544 441.23 59.6607C438.675 58.9354 435.948 58.289 433.047 57.7214C430.146 57.1223 427.166 56.5547 424.107 56.0186C421.048 55.451 418.068 54.8361 415.167 54.1739C412.266 53.4802 409.523 52.6761 406.937 51.7616C404.383 50.8472 402.128 49.7435 400.173 48.4507C398.25 47.1578 396.72 45.6284 395.585 43.8626C394.482 42.0652 393.93 39.9367 393.93 37.4771C393.93 35.3013 394.356 33.3778 395.207 31.7065C396.09 30.0037 397.272 28.5374 398.754 27.3076C400.268 26.0778 402.034 25.053 404.052 24.2332C406.07 23.3818 408.199 22.7196 410.437 22.2466C412.708 21.742 415.041 21.3794 417.438 21.1587C419.866 20.9379 422.231 20.8276 424.533 20.8276C427.781 20.8276 430.808 21.0325 433.614 21.4425C436.452 21.8524 439.007 22.3885 441.277 23.0507C443.547 23.6813 445.502 24.3908 447.142 25.1792C448.782 25.9675 450.059 26.7558 450.973 27.5441V22.0101H456.318V42.4436H450.973V38.2812C450.973 36.5469 450.406 34.9544 449.271 33.5039C448.167 32.0219 446.527 30.7448 444.351 29.6726C442.176 28.569 439.48 27.7176 436.263 27.1184C433.047 26.4878 429.342 26.1724 425.148 26.1724C421.332 26.1724 417.895 26.3932 414.836 26.8346C411.778 27.2446 409.16 27.9068 406.985 28.8212C404.84 29.7042 403.185 30.8551 402.018 32.2741C400.883 33.6616 400.315 35.3328 400.315 37.2879C400.315 39.0853 400.883 40.6304 402.018 41.9233C403.153 43.1846 404.683 44.2883 406.606 45.2343C408.53 46.1803 410.784 47.0001 413.37 47.6939C415.956 48.3876 418.699 49.034 421.6 49.6332C424.501 50.2323 427.481 50.8314 430.54 51.4305C433.599 51.9981 436.578 52.6603 439.48 53.4171C442.381 54.1424 445.124 54.978 447.71 55.924C450.295 56.87 452.55 58.021 454.474 59.3769C456.397 60.7328 457.926 62.3253 459.062 64.1542C460.197 65.9516 460.764 68.0801 460.764 70.5397C460.764 72.9677 460.276 75.0962 459.298 76.9251C458.352 78.7225 457.059 80.2834 455.42 81.6078C453.811 82.9007 451.904 83.9886 449.696 84.8715C447.52 85.7229 445.203 86.4009 442.743 86.9054C440.315 87.4099 437.808 87.7568 435.223 87.946C432.637 88.1667 430.114 88.2771 427.655 88.2771C424.217 88.2771 421.001 88.1037 418.005 87.7568C415.041 87.4415 412.329 86.9842 409.87 86.3851C407.41 85.7544 405.234 85.0292 403.342 84.2093C401.45 83.3894 399.874 82.475 398.612 81.4659V87H393.268Z" fill="#EFEFEF"/>
</svg>
