<svg width="415" height="113" viewBox="0 0 415 113" fill="none" xmlns="http://www.w3.org/2000/svg">
<path d="M0 112.712V83.9888H20.6394V86.9841H3.24158V97.2423H18.7929V100.197H3.24158V112.712H0Z" fill="white"/>
<path d="M28.3125 112.711L41.4019 83.7834H44.4383L57.5277 112.711H54.0399L50.6753 105.12H35.0418L31.6361 112.711H28.3125ZM36.3139 102.207H49.4033L42.8791 87.5584L36.3139 102.207Z" fill="white"/>
<path d="M164.131 112.712V83.9888H174.881C181.365 83.9888 185.632 87.4355 185.632 93.098V93.1801C185.632 99.376 180.462 102.577 174.348 102.577H167.372V112.712H164.131ZM167.372 99.6222H174.471C179.231 99.6222 182.349 97.0782 182.349 93.3032V93.2211C182.349 89.1178 179.272 86.9841 174.635 86.9841H167.372V99.6222Z" fill="white"/>
<path d="M117.328 112.712V83.9888H138.091V86.9431H120.57V96.7499H136.244V99.7043H120.57V109.757H138.296V112.712H117.328Z" fill="white"/>
<path d="M73.0898 112.712V83.9888H85.4407C89.0105 83.9888 91.8007 85.0556 93.6061 86.8611C95.0423 88.2972 95.8219 90.2257 95.8219 92.5236V92.6056C95.8219 97.3654 92.5393 100.197 88.0257 100.976L96.8477 112.712H92.8676L84.5379 101.551H76.3314V112.712H73.0898ZM76.3314 98.6374H85.1534C89.4208 98.6374 92.5393 96.4216 92.5393 92.7287V92.6466C92.5393 89.0768 89.8311 86.9841 85.1945 86.9841H76.3314V98.6374Z" fill="white"/>
<path d="M214.141 108.224V79.5007H217.382V105.228H233.549V108.224H214.141Z" fill="white"/>
<path d="M263.609 96.042L276.699 67.114H279.735L292.825 96.042H289.337L285.972 88.451H270.339L266.933 96.042H263.609ZM271.611 85.5377H284.7L278.176 70.889L271.611 85.5377Z" fill="white"/>
<path d="M327.621 68.4733V39.7505H330.658L348.753 62.7698V39.7505H351.912V68.4733H349.327L330.781 44.9206V68.4733H327.621Z" fill="white"/>
<path d="M393.658 28.7228V0H414.421V2.95435H396.9V12.7611H412.574V15.7155H396.9V25.7685H414.626V28.7228H393.658Z" fill="white"/>
</svg>
