<svg width="647" height="176" viewBox="0 0 647 176" fill="none" xmlns="http://www.w3.org/2000/svg">
<path d="M0 175.8V131H32.192V135.672H5.056V151.672H29.312V156.28H5.056V175.8H0Z" fill="white"/>
<path d="M44.16 175.8L64.576 130.68H69.312L89.728 175.8H84.288L79.04 163.96H54.656L49.344 175.8H44.16ZM56.64 159.416H77.056L66.88 136.568L56.64 159.416Z" fill="white"/>
<path d="M256 175.8V131H272.768C282.88 131 289.536 136.376 289.536 145.208V145.336C289.536 155 281.472 159.992 271.936 159.992H261.056V175.8H256ZM261.056 155.384H272.128C279.552 155.384 284.416 151.416 284.416 145.528V145.4C284.416 139 279.616 135.672 272.384 135.672H261.056V155.384Z" fill="white"/>
<path d="M183 175.8V131H215.384V135.608H188.056V150.904H212.504V155.512H188.056V171.192H215.704V175.8H183Z" fill="white"/>
<path d="M114 175.8V131H133.264C138.832 131 143.184 132.664 146 135.48C148.24 137.72 149.456 140.728 149.456 144.312V144.44C149.456 151.864 144.336 156.28 137.296 157.496L151.056 175.8H144.848L131.856 158.392H119.056V175.8H114ZM119.056 153.848H132.816C139.472 153.848 144.336 150.392 144.336 144.632V144.504C144.336 138.936 140.112 135.672 132.88 135.672H119.056V153.848Z" fill="white"/>
<path d="M334 168.8V124H339.056V164.128H364.272V168.8H334Z" fill="white"/>
<path d="M411.16 149.8L431.576 104.68H436.312L456.728 149.8H451.288L446.04 137.96H421.656L416.344 149.8H411.16ZM423.64 133.416H444.056L433.88 110.568L423.64 133.416Z" fill="white"/>
<path d="M511 106.8V62H515.736L543.96 97.904V62H548.888V106.8H544.856L515.928 70.064V106.8H511Z" fill="white"/>
<path d="M614 44.8V0H646.384V4.608H619.056V19.904H643.504V24.512H619.056V40.192H646.704V44.8H614Z" fill="white"/>
</svg>
