<svg width="265" height="66" viewBox="0 0 265 66" fill="none" xmlns="http://www.w3.org/2000/svg">
<path d="M2.59375 62V34.5H9.8125V36.3125H4.90625V46.2969H9.54688V48.1562H4.90625V62H2.59375ZM21.5131 62L25.935 34.5H28.31L33.2006 62H30.9506L30.0444 56.3438H24.5444L23.7163 62H21.5131ZM24.8413 54.6094H29.7319L27.2006 38.9375H27.1694L24.8413 54.6094ZM46.9013 62V34.5H51.5731C53.0523 34.5 54.1356 34.7344 54.8231 35.2031C55.5106 35.6719 55.9533 36.4062 56.1513 37.4062C56.3596 38.4062 56.4638 39.6979 56.4638 41.2812C56.4638 43.0417 56.2815 44.4583 55.9169 45.5312C55.5523 46.6042 54.8908 47.276 53.9325 47.5469C54.4638 47.6302 54.896 47.8646 55.2294 48.25C55.5627 48.625 55.8127 49.2448 55.9794 50.1094C56.1565 50.9635 56.2763 52.1458 56.3388 53.6562C56.4117 55.1667 56.4481 57.0938 56.4481 59.4375C56.4481 59.6875 56.4481 59.9115 56.4481 60.1094C56.4481 60.2969 56.4533 60.4688 56.4638 60.625C56.4742 60.7812 56.4898 60.9323 56.5106 61.0781C56.5419 61.2135 56.5783 61.3594 56.62 61.5156C56.6617 61.6615 56.719 61.8229 56.7919 62H54.4794C54.4169 61.875 54.3648 61.7292 54.3231 61.5625C54.2815 61.3854 54.245 61.1302 54.2138 60.7969C54.1929 60.4635 54.1773 59.9948 54.1669 59.3906C54.1565 58.7865 54.146 57.9896 54.1356 57C54.1356 56.0104 54.1356 54.776 54.1356 53.2969C54.1356 52.0365 54.1044 51.0781 54.0419 50.4219C53.9898 49.7656 53.7919 49.3125 53.4481 49.0625C53.1148 48.8021 52.5315 48.6458 51.6981 48.5938L49.2294 48.4375V62H46.9013ZM49.2138 46.875H51.6513C52.3179 46.875 52.8283 46.7604 53.1825 46.5312C53.5471 46.2917 53.7971 45.7812 53.9325 45C54.0679 44.2083 54.1356 42.9896 54.1356 41.3438V41.1406C54.1356 39.7865 54.0731 38.776 53.9481 38.1094C53.8335 37.4427 53.6096 37 53.2763 36.7812C52.9429 36.5521 52.4585 36.4375 51.8231 36.4375H49.2138V46.875ZM71.5238 62V34.5H78.7894V36.3125H73.8519V47.0625H78.4925V48.9531H73.8519V60.1562H78.7425V62H71.5238ZM93.2713 62V34.5H98.0525C99.1567 34.5 100.032 34.6979 100.678 35.0938C101.323 35.4792 101.797 36.0312 102.099 36.75C102.412 37.4583 102.61 38.3021 102.693 39.2812C102.787 40.25 102.834 41.3177 102.834 42.4844V42.7656C102.834 44.6823 102.698 46.2656 102.428 47.5156C102.167 48.7656 101.683 49.6979 100.974 50.3125C100.266 50.9271 99.2452 51.2344 97.9119 51.2344H95.5994V62H93.2713ZM95.5994 49.2656H98.0681C98.714 49.2656 99.2088 49.0677 99.5525 48.6719C99.9067 48.276 100.151 47.6094 100.287 46.6719C100.422 45.724 100.49 44.4323 100.49 42.7969V42.2656C100.5 40.2552 100.36 38.7812 100.068 37.8438C99.7765 36.9062 99.1463 36.4375 98.1775 36.4375H95.5994V49.2656ZM117.081 62V34.5H119.409V60.1562H124.284V62H117.081ZM135.657 62L140.079 34.5H142.454L147.344 62H145.094L144.188 56.3438H138.688L137.86 62H135.657ZM138.985 54.6094H143.876L141.344 38.9375H141.313L138.985 54.6094ZM161.045 62V34.5H162.67L169.42 55.7656L169.186 46.2969V34.5H171.217V62H169.404L163.076 41.2812L163.232 48.7188V62H161.045ZM186.98 62V34.5H194.246V36.3125H189.308V47.0625H193.949V48.9531H189.308V60.1562H194.199V62H186.98Z" fill="white"/>
<path d="M218.63 31.4545L218.777 31.3998M218.777 31.3998L263.412 14.8021L219.463 53.2575L228.364 35.3561L218.777 31.3998Z" stroke="#F3F3F6" stroke-width="2"/>
</svg>
