<svg width="303" height="73" viewBox="0 0 303 73" fill="none" xmlns="http://www.w3.org/2000/svg">
<path d="M2.59375 69V41.5H9.8125V43.3125H4.90625V53.2969H9.54688V55.1562H4.90625V69H2.59375ZM21.5131 69L25.935 41.5H28.31L33.2006 69H30.9506L30.0444 63.3438H24.5444L23.7163 69H21.5131ZM24.8413 61.6094H29.7319L27.2006 45.9375H27.1694L24.8413 61.6094ZM48.5013 69V41.5H53.1731C54.6523 41.5 55.7356 41.7344 56.4231 42.2031C57.1106 42.6719 57.5533 43.4062 57.7513 44.4062C57.9596 45.4062 58.0638 46.6979 58.0638 48.2812C58.0638 50.0417 57.8815 51.4583 57.5169 52.5312C57.1523 53.6042 56.4908 54.276 55.5325 54.5469C56.0638 54.6302 56.496 54.8646 56.8294 55.25C57.1627 55.625 57.4127 56.2448 57.5794 57.1094C57.7565 57.9635 57.8763 59.1458 57.9388 60.6562C58.0117 62.1667 58.0481 64.0938 58.0481 66.4375C58.0481 66.6875 58.0481 66.9115 58.0481 67.1094C58.0481 67.2969 58.0533 67.4688 58.0638 67.625C58.0742 67.7812 58.0898 67.9323 58.1106 68.0781C58.1419 68.2135 58.1783 68.3594 58.22 68.5156C58.2617 68.6615 58.319 68.8229 58.3919 69H56.0794C56.0169 68.875 55.9648 68.7292 55.9231 68.5625C55.8815 68.3854 55.845 68.1302 55.8138 67.7969C55.7929 67.4635 55.7773 66.9948 55.7669 66.3906C55.7565 65.7865 55.746 64.9896 55.7356 64C55.7356 63.0104 55.7356 61.776 55.7356 60.2969C55.7356 59.0365 55.7044 58.0781 55.6419 57.4219C55.5898 56.7656 55.3919 56.3125 55.0481 56.0625C54.7148 55.8021 54.1315 55.6458 53.2981 55.5938L50.8294 55.4375V69H48.5013ZM50.8138 53.875H53.2513C53.9179 53.875 54.4283 53.7604 54.7825 53.5312C55.1471 53.2917 55.3971 52.7812 55.5325 52C55.6679 51.2083 55.7356 49.9896 55.7356 48.3438V48.1406C55.7356 46.7865 55.6731 45.776 55.5481 45.1094C55.4335 44.4427 55.2096 44 54.8763 43.7812C54.5429 43.5521 54.0585 43.4375 53.4231 43.4375H50.8138V53.875ZM76.6438 69V41.5H83.9094V43.3125H78.9719V54.0625H83.6125V55.9531H78.9719V67.1562H83.8625V69H76.6438ZM101.911 69V41.5H106.692C107.797 41.5 108.672 41.6979 109.317 42.0938C109.963 42.4792 110.437 43.0312 110.739 43.75C111.052 44.4583 111.25 45.3021 111.333 46.2812C111.427 47.25 111.474 48.3177 111.474 49.4844V49.7656C111.474 51.6823 111.338 53.2656 111.067 54.5156C110.807 55.7656 110.323 56.6979 109.614 57.3125C108.906 57.9271 107.885 58.2344 106.552 58.2344H104.239V69H101.911ZM104.239 56.2656H106.708C107.354 56.2656 107.849 56.0677 108.192 55.6719C108.547 55.276 108.791 54.6094 108.927 53.6719C109.062 52.724 109.13 51.4323 109.13 49.7969V49.2656C109.14 47.2552 109 45.7812 108.708 44.8438C108.416 43.9062 107.786 43.4375 106.817 43.4375H104.239V56.2656ZM131.801 69V41.5H134.129V67.1562H139.004V69H131.801ZM156.457 69L160.879 41.5H163.254L168.144 69H165.894L164.988 63.3438H159.488L158.66 69H156.457ZM159.785 61.6094H164.676L162.144 45.9375H162.113L159.785 61.6094ZM191.125 69V41.5H192.75L199.5 62.7656L199.266 53.2969V41.5H201.297V69H199.484L193.156 48.2812L193.312 55.7188V69H191.125ZM229.86 69V41.5H237.126V43.3125H232.188V54.0625H236.829V55.9531H232.188V67.1562H237.079V69H229.86Z" fill="white"/>
<path d="M256.763 31.4545L256.91 31.3998M256.91 31.3998L301.545 14.8021L257.596 53.2575L266.497 35.3561L256.91 31.3998Z" stroke="#F3F3F6" stroke-width="2"/>
</svg>
