<svg width="369" height="195" viewBox="0 0 369 195" fill="none" xmlns="http://www.w3.org/2000/svg">
<g clip-path="url(#clip0_2940_1886)">
<path d="M0 0H369V194.211H0" fill="#B31942"/>
<path d="M0 22.4089H369ZM369 52.2875H0ZM0 82.166H369ZM369 112.045H0ZM0 141.923H369ZM369 171.802H0Z" fill="black"/>
<path d="M0 22.4089H369M369 52.2875H0M0 82.166H369M369 112.045H0M0 141.923H369M369 171.802H0" stroke="white" stroke-width="14.9393"/>
<path d="M0 0H147.6V104.575H0" fill="#0A3161"/>
<path d="M12.3024 4.48193L15.8148 15.2921L6.61914 8.61105H17.9856L8.78994 15.2921L12.3024 4.48193Z" fill="white"/>
<path d="M12.3024 25.3967L15.8148 36.2069L6.61914 29.5258H17.9856L8.78994 36.2069L12.3024 25.3967Z" fill="white"/>
<path d="M12.3024 46.3118L15.8148 57.1219L6.61914 50.4409H17.9856L8.78994 57.1219L12.3024 46.3118Z" fill="white"/>
<path d="M12.3024 67.2266L15.8148 78.0367L6.61914 71.3557H17.9856L8.78994 78.0367L12.3024 67.2266Z" fill="white"/>
<path d="M12.3024 88.1416L15.8148 98.9518L6.61914 92.2707H17.9856L8.78994 98.9518L12.3024 88.1416Z" fill="white"/>
<path d="M24.6012 14.9392L28.1136 25.7494L18.918 19.0683H30.2844L21.0888 25.7494L24.6012 14.9392Z" fill="white"/>
<path d="M24.6012 35.8545L28.1136 46.6647L18.918 39.9836H30.2844L21.0888 46.6647L24.6012 35.8545Z" fill="white"/>
<path d="M24.6012 56.7693L28.1136 67.5794L18.918 60.8984H30.2844L21.0888 67.5794L24.6012 56.7693Z" fill="white"/>
<path d="M24.6012 77.6843L28.1136 88.4945L18.918 81.8134H30.2844L21.0888 88.4945L24.6012 77.6843Z" fill="white"/>
<path d="M36.9 4.48193L40.4125 15.2921L31.2168 8.61105H42.5833L33.3876 15.2921L36.9 4.48193Z" fill="white"/>
<path d="M36.9 25.3967L40.4125 36.2069L31.2168 29.5258H42.5833L33.3876 36.2069L36.9 25.3967Z" fill="white"/>
<path d="M36.9 46.3118L40.4125 57.1219L31.2168 50.4409H42.5833L33.3876 57.1219L36.9 46.3118Z" fill="white"/>
<path d="M36.9 67.2266L40.4125 78.0367L31.2168 71.3557H42.5833L33.3876 78.0367L36.9 67.2266Z" fill="white"/>
<path d="M36.9 88.1416L40.4125 98.9518L31.2168 92.2707H42.5833L33.3876 98.9518L36.9 88.1416Z" fill="white"/>
<path d="M49.2008 14.9392L52.7132 25.7494L43.5176 19.0683H54.8841L45.6884 25.7494L49.2008 14.9392Z" fill="white"/>
<path d="M49.2008 35.8545L52.7132 46.6647L43.5176 39.9836H54.8841L45.6884 46.6647L49.2008 35.8545Z" fill="white"/>
<path d="M49.2008 56.7693L52.7132 67.5794L43.5176 60.8984H54.8841L45.6884 67.5794L49.2008 56.7693Z" fill="white"/>
<path d="M49.2008 77.6843L52.7132 88.4945L43.5176 81.8134H54.8841L45.6884 88.4945L49.2008 77.6843Z" fill="white"/>
<path d="M61.5016 4.48193L65.014 15.2921L55.8184 8.61105H67.1848L57.9892 15.2921L61.5016 4.48193Z" fill="white"/>
<path d="M61.5016 25.3967L65.014 36.2069L55.8184 29.5258H67.1848L57.9892 36.2069L61.5016 25.3967Z" fill="white"/>
<path d="M61.5016 46.3118L65.014 57.1219L55.8184 50.4409H67.1848L57.9892 57.1219L61.5016 46.3118Z" fill="white"/>
<path d="M61.5016 67.2266L65.014 78.0367L55.8184 71.3557H67.1848L57.9892 78.0367L61.5016 67.2266Z" fill="white"/>
<path d="M61.5016 88.1416L65.014 98.9518L55.8184 92.2707H67.1848L57.9892 98.9518L61.5016 88.1416Z" fill="white"/>
<path d="M73.8004 14.9392L77.3129 25.7494L68.1172 19.0683H79.4837L70.288 25.7494L73.8004 14.9392Z" fill="white"/>
<path d="M73.8004 35.8545L77.3129 46.6647L68.1172 39.9836H79.4837L70.288 46.6647L73.8004 35.8545Z" fill="white"/>
<path d="M73.8004 56.7693L77.3129 67.5794L68.1172 60.8984H79.4837L70.288 67.5794L73.8004 56.7693Z" fill="white"/>
<path d="M73.8004 77.6843L77.3129 88.4945L68.1172 81.8134H79.4837L70.288 88.4945L73.8004 77.6843Z" fill="white"/>
<path d="M86.1012 4.48193L89.6136 15.2921L80.418 8.61105H91.7844L82.5888 15.2921L86.1012 4.48193Z" fill="white"/>
<path d="M86.1012 25.3967L89.6136 36.2069L80.418 29.5258H91.7844L82.5888 36.2069L86.1012 25.3967Z" fill="white"/>
<path d="M86.1012 46.3118L89.6136 57.1219L80.418 50.4409H91.7844L82.5888 57.1219L86.1012 46.3118Z" fill="white"/>
<path d="M86.1012 67.2266L89.6136 78.0367L80.418 71.3557H91.7844L82.5888 78.0367L86.1012 67.2266Z" fill="white"/>
<path d="M86.1012 88.1416L89.6136 98.9518L80.418 92.2707H91.7844L82.5888 98.9518L86.1012 88.1416Z" fill="white"/>
<path d="M98.4 14.9392L101.912 25.7494L92.7168 19.0683H104.083L94.8876 25.7494L98.4 14.9392Z" fill="white"/>
<path d="M98.4 35.8545L101.912 46.6647L92.7168 39.9836H104.083L94.8876 46.6647L98.4 35.8545Z" fill="white"/>
<path d="M98.4 56.7693L101.912 67.5794L92.7168 60.8984H104.083L94.8876 67.5794L98.4 56.7693Z" fill="white"/>
<path d="M98.4 77.6843L101.912 88.4945L92.7168 81.8134H104.083L94.8876 88.4945L98.4 77.6843Z" fill="white"/>
<path d="M110.701 4.48193L114.213 15.2921L105.018 8.61105H116.384L107.188 15.2921L110.701 4.48193Z" fill="white"/>
<path d="M110.701 25.3967L114.213 36.2069L105.018 29.5258H116.384L107.188 36.2069L110.701 25.3967Z" fill="white"/>
<path d="M110.701 46.3118L114.213 57.1219L105.018 50.4409H116.384L107.188 57.1219L110.701 46.3118Z" fill="white"/>
<path d="M110.701 67.2266L114.213 78.0367L105.018 71.3557H116.384L107.188 78.0367L110.701 67.2266Z" fill="white"/>
<path d="M110.701 88.1416L114.213 98.9518L105.018 92.2707H116.384L107.188 98.9518L110.701 88.1416Z" fill="white"/>
<path d="M123.002 14.9392L126.514 25.7494L117.318 19.0683H128.685L119.489 25.7494L123.002 14.9392Z" fill="white"/>
<path d="M123.002 35.8545L126.514 46.6647L117.318 39.9836H128.685L119.489 46.6647L123.002 35.8545Z" fill="white"/>
<path d="M123.002 56.7693L126.514 67.5794L117.318 60.8984H128.685L119.489 67.5794L123.002 56.7693Z" fill="white"/>
<path d="M123.002 77.6843L126.514 88.4945L117.318 81.8134H128.685L119.489 88.4945L123.002 77.6843Z" fill="white"/>
<path d="M135.3 4.48193L138.813 15.2921L129.617 8.61105H140.984L131.788 15.2921L135.3 4.48193Z" fill="white"/>
<path d="M135.3 25.3967L138.813 36.2069L129.617 29.5258H140.984L131.788 36.2069L135.3 25.3967Z" fill="white"/>
<path d="M135.3 46.3118L138.813 57.1219L129.617 50.4409H140.984L131.788 57.1219L135.3 46.3118Z" fill="white"/>
<path d="M135.3 67.2266L138.813 78.0367L129.617 71.3557H140.984L131.788 78.0367L135.3 67.2266Z" fill="white"/>
<path d="M135.3 88.1416L138.813 98.9518L129.617 92.2707H140.984L131.788 98.9518L135.3 88.1416Z" fill="white"/>
</g>
<defs>
<clipPath id="clip0_2940_1886">
<rect width="369" height="194.211" fill="white"/>
</clipPath>
</defs>
</svg>
