<svg width="692" height="46" viewBox="0 0 692 46" fill="none" xmlns="http://www.w3.org/2000/svg">
<path d="M657.734 29.7244C657.841 29.7422 658.34 29.9026 659.231 30.2056C660.14 30.4907 661.236 30.8204 662.519 31.1946C663.802 31.551 665.085 31.8718 666.368 32.1569C667.669 32.4242 668.774 32.5579 669.682 32.5579C670.467 32.5579 671.108 32.442 671.607 32.2104C672.106 31.9787 672.356 31.551 672.356 30.9273C672.356 30.2501 671.999 29.6353 671.286 29.0829C670.573 28.5305 669.656 27.9602 668.533 27.3721C667.428 26.7841 666.243 26.1158 664.978 25.3673C663.73 24.6189 662.545 23.719 661.423 22.6675C660.318 21.6161 659.409 20.3598 658.696 18.8985C657.983 17.4194 657.627 15.6552 657.627 13.6059C657.627 11.0932 658.153 8.97257 659.204 7.24399C660.255 5.49759 661.663 4.09869 663.427 3.04729C665.21 1.97806 667.205 1.20288 669.415 0.721726C671.643 0.240575 673.924 0 676.258 0C678.236 0 680.107 0.106922 681.872 0.320767C683.636 0.534612 685.124 0.766277 686.336 1.01576C687.565 1.26525 688.34 1.43454 688.661 1.52364V13.793C688.661 13.793 688.287 13.7128 687.538 13.5524C686.808 13.392 685.881 13.2138 684.759 13.0178C683.654 12.8218 682.504 12.6436 681.31 12.4832C680.134 12.3228 679.101 12.2426 678.21 12.2426C677.39 12.2426 676.775 12.3852 676.365 12.6703C675.955 12.9554 675.75 13.294 675.75 13.6861C675.75 14.0068 675.929 14.3632 676.285 14.7553C676.641 15.1295 677.069 15.4236 677.568 15.6374C679.439 16.4571 681.203 17.2947 682.861 18.1501C684.518 19.0055 685.979 19.9945 687.244 21.1172C688.51 22.2399 689.499 23.612 690.212 25.2337C690.942 26.8375 691.308 28.8067 691.308 31.1411C691.308 33.9211 690.604 36.3447 689.196 38.4119C687.806 40.479 685.792 42.0829 683.155 43.2234C680.535 44.3639 677.372 44.9341 673.665 44.9341C670.475 44.9341 667.847 44.7827 665.78 44.4797C663.713 44.1768 662.091 43.8382 660.915 43.464C659.739 43.0719 658.91 42.7244 658.429 42.4215C657.966 42.1185 657.734 41.967 657.734 41.967V29.7244Z" fill="#EFEFEF"/>
<path d="M613.131 1.20288V14.3276L623.423 1.20288H640.771L626.978 19.1926L642.909 43.8916H623.423L614.495 28.7889L613.506 30.5263V43.8916H596.211V1.20288H613.131Z" fill="#EFEFEF"/>
<path d="M532.709 1.20298L537.601 16.4127L548.266 2.11182C548.622 1.63067 548.899 1.31881 549.095 1.17625C549.291 1.03368 549.505 0.962402 549.736 0.962402C549.968 0.962402 550.191 1.03368 550.404 1.17625C550.618 1.30099 550.895 1.61285 551.233 2.11182L561.177 16.2523L565.988 1.20298H581.278L567.325 42.7958C567.04 43.669 566.603 44.3283 566.015 44.7739C565.445 45.2372 564.821 45.4688 564.144 45.4688C562.754 45.4688 561.498 44.6491 560.375 43.0096L548.426 25.7684L535.569 43.0631C535.034 43.7759 534.437 44.3373 533.778 44.7471C533.136 45.157 532.486 45.3619 531.827 45.3619C531.167 45.3619 530.544 45.1481 529.956 44.7204C529.385 44.3105 528.922 43.6333 528.566 42.6889L513.543 1.20298H532.709Z" fill="#EFEFEF"/>
<path d="M454.559 43.8917L475.783 3.36808C476.299 2.38796 477.101 1.63059 478.188 1.09598C479.275 0.54355 480.407 0.267334 481.583 0.267334C482.635 0.267334 483.659 0.507909 484.657 0.98906C485.673 1.47021 486.457 2.20976 487.01 3.2077L509.784 43.8917H488.105L486.421 39.6682H474.874L473.43 43.8917H454.559ZM476.184 31.1946H484.818L480.728 19.647L476.184 31.1946Z" fill="#EFEFEF"/>
<path d="M423.855 1.20288H440.508V43.8916H423.855V28.1206L414.98 28.8958V43.8916H398.354V1.20288H414.98V16.6264L423.855 15.9047V1.20288Z" fill="#EFEFEF"/>
<path d="M329.211 43.8917L350.435 3.36808C350.952 2.38796 351.754 1.63059 352.841 1.09598C353.928 0.54355 355.059 0.267334 356.236 0.267334C357.287 0.267334 358.312 0.507909 359.31 0.98906C360.325 1.47021 361.109 2.20976 361.662 3.2077L384.436 43.8917H362.758L361.074 39.6682H349.526L348.083 43.8917H329.211ZM350.836 31.1946H359.47L355.38 19.647L350.836 31.1946Z" fill="#EFEFEF"/>
<path d="M283.859 1.20288H324.276V15.0493H312.381V43.8916H295.754V15.0493H283.859V1.20288Z" fill="#EFEFEF"/>
<path d="M226.477 1.20288H230.807L254.116 17.8293V1.20288H269.165V43.8916H263.418L241.472 29.2165V43.8916H226.477V1.20288Z" fill="#EFEFEF"/>
<path d="M157.334 43.8917L178.558 3.36808C179.075 2.38796 179.877 1.63059 180.964 1.09598C182.051 0.54355 183.182 0.267334 184.359 0.267334C185.41 0.267334 186.435 0.507909 187.433 0.98906C188.448 1.47021 189.232 2.20976 189.785 3.2077L212.559 43.8917H190.881L189.197 39.6682H177.649L176.206 43.8917H157.334ZM178.959 31.1946H187.593L183.503 19.647L178.959 31.1946Z" fill="#EFEFEF"/>
<path d="M114.762 1.20288H131.388V31.0342H145.742V43.8916H114.762V1.20288Z" fill="#EFEFEF"/>
<path d="M59.7344 1.20288H100.151V15.0493H88.2559V43.8916H71.6295V15.0493H59.7344V1.20288Z" fill="#EFEFEF"/>
<path d="M0 43.8917L21.2241 3.36808C21.7409 2.38796 22.5428 1.63059 23.6298 1.09598C24.7169 0.54355 25.8485 0.267334 27.0246 0.267334C28.076 0.267334 29.1007 0.507909 30.0987 0.98906C31.1144 1.47021 31.8985 2.20976 32.4509 3.2077L55.2254 43.8917H33.5469L31.8629 39.6682H20.3153L18.8718 43.8917H0ZM21.6251 31.1946H30.259L26.1693 19.647L21.6251 31.1946Z" fill="#EFEFEF"/>
</svg>
