<svg width="809" height="54" viewBox="0 0 809 54" fill="none" xmlns="http://www.w3.org/2000/svg">
<path d="M0.03125 52L24.8438 4.625C25.4479 3.47917 26.3854 2.59375 27.6562 1.96875C28.9271 1.32292 30.25 1 31.625 1C32.8542 1 34.0521 1.28125 35.2188 1.84375C36.4062 2.40625 37.3229 3.27083 37.9688 4.4375L64.5938 52H39.25L37.2812 47.0625H23.7812L22.0938 52H0.03125ZM25.3125 37.1562H35.4062L30.625 23.6562L25.3125 37.1562ZM69.8638 2.09375H117.114V18.2812H103.208V52H83.77V18.2812H69.8638V2.09375ZM134.196 2.09375H153.634V36.9688H170.415V52H134.196V2.09375ZM183.966 52L208.779 4.625C209.383 3.47917 210.32 2.59375 211.591 1.96875C212.862 1.32292 214.185 1 215.56 1C216.789 1 217.987 1.28125 219.154 1.84375C220.341 2.40625 221.258 3.27083 221.904 4.4375L248.529 52H223.185L221.216 47.0625H207.716L206.029 52H183.966ZM209.247 37.1562H219.341L214.56 23.6562L209.247 37.1562ZM264.799 2.09375H269.861L297.111 21.5312V2.09375H314.705V52H307.986L282.33 34.8438V52H264.799V2.09375ZM331.881 2.09375H379.131V18.2812H365.225V52H345.788V18.2812H331.881V2.09375ZM384.901 52L409.714 4.625C410.318 3.47917 411.255 2.59375 412.526 1.96875C413.797 1.32292 415.12 1 416.495 1C417.724 1 418.922 1.28125 420.089 1.84375C421.276 2.40625 422.193 3.27083 422.839 4.4375L449.464 52H424.12L422.151 47.0625H408.651L406.964 52H384.901ZM410.182 37.1562H420.276L415.495 23.6562L410.182 37.1562ZM495.546 2.09375H515.015V52H495.546V33.5625L485.171 34.4688V52H465.734V2.09375H485.171V20.125L495.546 19.2812V2.09375ZM531.441 52L556.254 4.625C556.858 3.47917 557.795 2.59375 559.066 1.96875C560.337 1.32292 561.66 1 563.035 1C564.264 1 565.462 1.28125 566.629 1.84375C567.816 2.40625 568.733 3.27083 569.379 4.4375L596.004 52H570.66L568.691 47.0625H555.191L553.504 52H531.441ZM556.723 37.1562H566.816L562.035 23.6562L556.723 37.1562ZM622.805 2.09375L628.524 19.875L640.992 3.15625C641.409 2.59375 641.732 2.22917 641.961 2.0625C642.19 1.89583 642.44 1.8125 642.711 1.8125C642.982 1.8125 643.242 1.89583 643.492 2.0625C643.742 2.20833 644.065 2.57292 644.461 3.15625L656.086 19.6875L661.711 2.09375H679.586L663.274 50.7188C662.94 51.7396 662.43 52.5104 661.742 53.0312C661.076 53.5729 660.347 53.8438 659.555 53.8438C657.93 53.8438 656.461 52.8854 655.149 50.9688L641.18 30.8125L626.149 51.0312C625.524 51.8646 624.826 52.5208 624.055 53C623.305 53.4792 622.545 53.7188 621.774 53.7188C621.003 53.7188 620.274 53.4688 619.586 52.9688C618.92 52.4896 618.378 51.6979 617.961 50.5938L600.399 2.09375H622.805ZM716.825 2.09375V17.4375L728.856 2.09375H749.138L733.013 23.125L751.638 52H728.856L718.419 34.3438L717.263 36.375V52H697.044V2.09375H716.825ZM768.97 35.4375C769.095 35.4583 769.678 35.6458 770.72 36C771.783 36.3333 773.064 36.7188 774.564 37.1562C776.064 37.5729 777.564 37.9479 779.064 38.2812C780.585 38.5938 781.876 38.75 782.939 38.75C783.855 38.75 784.605 38.6146 785.189 38.3438C785.772 38.0729 786.064 37.5729 786.064 36.8438C786.064 36.0521 785.647 35.3333 784.814 34.6875C783.98 34.0417 782.908 33.375 781.595 32.6875C780.303 32 778.918 31.2188 777.439 30.3438C775.98 29.4688 774.595 28.4167 773.283 27.1875C771.991 25.9583 770.928 24.4896 770.095 22.7812C769.262 21.0521 768.845 18.9896 768.845 16.5938C768.845 13.6562 769.46 11.1771 770.689 9.15625C771.918 7.11458 773.564 5.47917 775.626 4.25C777.71 3 780.043 2.09375 782.626 1.53125C785.23 0.96875 787.897 0.6875 790.626 0.6875C792.939 0.6875 795.126 0.8125 797.189 1.0625C799.251 1.3125 800.991 1.58333 802.408 1.875C803.845 2.16667 804.751 2.36458 805.126 2.46875V16.8125C805.126 16.8125 804.689 16.7188 803.814 16.5312C802.96 16.3438 801.876 16.1354 800.564 15.9062C799.272 15.6771 797.928 15.4688 796.533 15.2812C795.158 15.0938 793.949 15 792.908 15C791.949 15 791.23 15.1667 790.751 15.5C790.272 15.8333 790.033 16.2292 790.033 16.6875C790.033 17.0625 790.241 17.4792 790.658 17.9375C791.074 18.375 791.574 18.7188 792.158 18.9688C794.345 19.9271 796.408 20.9062 798.345 21.9062C800.283 22.9062 801.991 24.0625 803.47 25.375C804.949 26.6875 806.105 28.2917 806.939 30.1875C807.793 32.0625 808.22 34.3646 808.22 37.0938C808.22 40.3438 807.397 43.1771 805.751 45.5938C804.126 48.0104 801.772 49.8854 798.689 51.2188C795.626 52.5521 791.928 53.2188 787.595 53.2188C783.866 53.2188 780.793 53.0417 778.376 52.6875C775.96 52.3333 774.064 51.9375 772.689 51.5C771.314 51.0417 770.345 50.6354 769.783 50.2812C769.241 49.9271 768.97 49.75 768.97 49.75V35.4375Z" fill="#EFEFEF"/>
</svg>
