<svg width="72" height="19" viewBox="0 0 72 19" fill="none" xmlns="http://www.w3.org/2000/svg">
<path d="M1.188 16V7.6H7.224V8.476H2.136V11.476H6.684V12.34H2.136V16H1.188ZM9.78206 16L13.6101 7.54H14.4981L18.3261 16H17.3061L16.3221 13.78H11.7501L10.7541 16H9.78206ZM12.1221 12.928H15.9501L14.0421 8.644L12.1221 12.928ZM23.6863 16V12.676L20.1943 7.6H21.3463L24.1783 11.8L27.0343 7.6H28.1383L24.6463 12.664V16H23.6863ZM34.7058 16.06L31.0938 7.6H32.1498L35.1378 14.836L38.1378 7.6H39.1578L35.5458 16.06H34.7058ZM43.2138 16V7.6H49.2858V8.464H44.1618V11.332H48.7458V12.196H44.1618V15.136H49.3458V16H43.2138ZM56.5328 16.12C55.1888 16.12 54.1088 15.688 53.1008 14.776L53.6888 14.08C54.5648 14.884 55.4048 15.268 56.5688 15.268C57.7088 15.268 58.4408 14.668 58.4408 13.84V13.816C58.4408 13.036 58.0208 12.604 56.2568 12.22C54.3248 11.8 53.4368 11.176 53.4368 9.796V9.772C53.4368 8.464 54.6008 7.48 56.1968 7.48C57.4328 7.48 58.2848 7.828 59.1488 8.512L58.5968 9.244C57.8168 8.608 57.0368 8.332 56.1728 8.332C55.0688 8.332 54.3848 8.92 54.3848 9.688V9.712C54.3848 10.504 54.8048 10.96 56.6648 11.344C58.5368 11.764 59.4008 12.436 59.4008 13.72V13.744C59.4008 15.184 58.2008 16.12 56.5328 16.12Z" fill="#080808"/>
<path d="M71.0576 0.661133L71.8281 2.41309L71.0576 4.23438L66.6426 9L62.2275 4.23438L61.457 2.41309L62.2275 0.661133L63.8398 0L65.5215 0.450195L66.6426 1.85254L67.7637 0.450195L69.4453 0L71.0576 0.661133Z" fill="#ED0000"/>
</svg>
