<svg width="196" height="124" viewBox="0 0 196 124" fill="none" xmlns="http://www.w3.org/2000/svg">
<path d="M184.312 91.625C181.562 91.625 179.385 91.0208 177.781 89.8125C176.198 88.6042 175.062 86.7812 174.375 84.3438C173.708 81.9062 173.375 78.8542 173.375 75.1875V50.9375C173.375 47.7708 173.688 45.0208 174.312 42.6875C174.938 40.3542 176.052 38.5417 177.656 37.25C179.26 35.9583 181.531 35.3125 184.469 35.3125C186.677 35.3125 188.479 35.6875 189.875 36.4375C191.271 37.1667 192.344 38.2188 193.094 39.5938C193.865 40.9479 194.396 42.5833 194.688 44.5C194.979 46.4167 195.125 48.5625 195.125 50.9375V75.1875C195.125 78.8542 194.792 81.9062 194.125 84.3438C193.479 86.7812 192.365 88.6042 190.781 89.8125C189.219 91.0208 187.062 91.625 184.312 91.625ZM184.312 86.0625C185.5 86.0625 186.406 85.7292 187.031 85.0625C187.656 84.375 188.083 83.2396 188.312 81.6562C188.542 80.0729 188.656 77.9375 188.656 75.25V50.5625C188.656 47.2708 188.396 44.8333 187.875 43.25C187.354 41.6667 186.219 40.875 184.469 40.875C182.656 40.875 181.427 41.6667 180.781 43.25C180.156 44.8125 179.844 47.2396 179.844 50.5312V75.25C179.844 77.9583 179.958 80.1042 180.188 81.6875C180.417 83.25 180.854 84.375 181.5 85.0625C182.146 85.7292 183.083 86.0625 184.312 86.0625Z" fill="#E1FF69"/>
<path d="M144.621 91.6562C141.954 91.6562 139.829 91.0104 138.246 89.7188C136.663 88.4062 135.527 86.4896 134.84 83.9688C134.152 81.4479 133.809 78.3854 133.809 74.7812V51.875C133.809 49.4583 133.965 47.25 134.277 45.25C134.59 43.2292 135.142 41.4896 135.934 40.0312C136.746 38.5521 137.871 37.4167 139.309 36.625C140.746 35.8125 142.59 35.4062 144.84 35.4062C146.986 35.4062 148.736 35.7917 150.09 36.5625C151.444 37.3125 152.496 38.3958 153.246 39.8125C153.996 41.2083 154.507 42.875 154.777 44.8125C155.069 46.7292 155.215 48.8542 155.215 51.1875V57.2812H148.871V51.1562C148.871 47.7396 148.621 45.1875 148.121 43.5C147.642 41.7917 146.548 40.9375 144.84 40.9375C143.027 40.9375 141.809 41.8125 141.184 43.5625C140.579 45.2917 140.277 47.8125 140.277 51.125V74.9375C140.277 77.6042 140.392 79.7708 140.621 81.4375C140.85 83.0833 141.277 84.2812 141.902 85.0312C142.548 85.7812 143.465 86.1562 144.652 86.1562C146.382 86.1562 147.517 85.2812 148.059 83.5312C148.6 81.7812 148.871 78.9062 148.871 74.9062V68.8125H155.277V74.8438C155.277 78.5104 154.954 81.5938 154.309 84.0938C153.684 86.5938 152.6 88.4792 151.059 89.75C149.517 91.0208 147.371 91.6562 144.621 91.6562Z" fill="#E1FF69"/>
<path d="M76.8906 91V67.9062L67.3281 36H73.7344L80.1094 58.3438H80.2344L85.7656 36H92.2344L83.3594 67.9062V91H76.8906Z" fill="#E1FF69"/>
<path d="M31.043 91L39.3867 36H47.168L56.2617 91H50.168L48.6055 80.5H38.6367L37.1992 91H31.043ZM39.3555 75.25H47.793L43.4492 46.1875H43.3555L39.3555 75.25Z" fill="#E1FF69"/>
<path d="M0.976562 91V36H17.5391V41.4062H7.41406V58.7812H16.9141V64.25H7.41406V91H0.976562Z" fill="#E1FF69"/>
<path d="M130.094 0L131.985 0.651136L89.6609 123.569L87.7699 122.917L130.094 0Z" fill="#FFB8F6"/>
</svg>
