<svg width="186" height="124" viewBox="0 0 186 124" fill="none" xmlns="http://www.w3.org/2000/svg">
<path d="M176.094 91.625C173.448 91.625 171.417 91.0208 170 89.8125C168.604 88.6042 167.646 86.7604 167.125 84.2812C166.625 81.7812 166.375 78.6146 166.375 74.7812V51.375C166.375 48.2083 166.594 45.4167 167.031 43C167.469 40.5833 168.385 38.6979 169.781 37.3438C171.198 35.9688 173.375 35.2812 176.312 35.2812C178.521 35.2812 180.26 35.6771 181.531 36.4688C182.802 37.2396 183.729 38.3438 184.312 39.7812C184.917 41.2188 185.302 42.9167 185.469 44.875C185.635 46.8333 185.719 49 185.719 51.375V74.7812C185.719 78.6146 185.469 81.7812 184.969 84.2812C184.469 86.7604 183.531 88.6042 182.156 89.8125C180.781 91.0208 178.76 91.625 176.094 91.625ZM176.094 87.8125C177.427 87.8125 178.448 87.4271 179.156 86.6562C179.885 85.8854 180.385 84.5521 180.656 82.6562C180.927 80.7604 181.062 78.1354 181.062 74.7812V51C181.062 46.8542 180.76 43.8542 180.156 42C179.573 40.125 178.292 39.1875 176.312 39.1875C174.229 39.1875 172.823 40.125 172.094 42C171.385 43.875 171.031 46.8646 171.031 50.9688V74.7812C171.031 78.1354 171.167 80.7604 171.438 82.6562C171.708 84.5521 172.208 85.8854 172.938 86.6562C173.667 87.4271 174.719 87.8125 176.094 87.8125Z" fill="#E1FF69"/>
<path d="M138.121 91.625C135.434 91.625 133.382 90.9479 131.965 89.5938C130.569 88.2188 129.621 86.2083 129.121 83.5625C128.621 80.9167 128.371 77.6667 128.371 73.8125V51.9062C128.371 49.5729 128.486 47.3958 128.715 45.375C128.944 43.3542 129.392 41.5938 130.059 40.0938C130.725 38.5729 131.715 37.3958 133.027 36.5625C134.361 35.7083 136.121 35.2812 138.309 35.2812C140.538 35.2812 142.277 35.7188 143.527 36.5938C144.798 37.4479 145.715 38.6458 146.277 40.1875C146.861 41.7292 147.225 43.5312 147.371 45.5938C147.517 47.6562 147.59 49.8854 147.59 52.2812V57.0312H142.871V51.7188C142.871 47.6354 142.611 44.5312 142.09 42.4062C141.569 40.2604 140.298 39.1875 138.277 39.1875C136.194 39.1875 134.798 40.25 134.09 42.375C133.382 44.4792 133.027 47.5833 133.027 51.6875V73.75C133.027 77.125 133.152 79.8438 133.402 81.9062C133.652 83.9688 134.142 85.4688 134.871 86.4062C135.6 87.3438 136.673 87.8125 138.09 87.8125C140.132 87.8125 141.434 86.7396 141.996 84.5938C142.579 82.4271 142.871 78.8229 142.871 73.7812V69.375H147.559V73.75C147.559 77.5833 147.329 80.8333 146.871 83.5C146.413 86.1667 145.507 88.1875 144.152 89.5625C142.798 90.9375 140.788 91.625 138.121 91.625Z" fill="#E1FF69"/>
<path d="M72.7969 91V66.875L62.8594 36H67.5469L75.0781 60.3125H75.1719L81.6094 36H86.4219L77.4531 66.8438V91H72.7969Z" fill="#E1FF69"/>
<path d="M28.5742 91L37.418 36H42.168L51.9492 91H47.4492L45.6367 79.6875H34.6367L32.9805 91H28.5742ZM35.2305 76.2188H45.0117L39.9492 44.875H39.8867L35.2305 76.2188Z" fill="#E1FF69"/>
<path d="M0.976562 91V36H15.4141V39.625H5.60156V59.5938H14.8828V63.3125H5.60156V91H0.976562Z" fill="#E1FF69"/>
<rect x="123.094" width="1" height="130" transform="rotate(19 123.094 0)" fill="#FFB8F6"/>
</svg>
